thincompressed.ufo
<glyph name="dollar" format="1">
  <advance width="363"/>
  <unicode hex="0024"/>
  <outline>
    <contour>
      <point x="52" y="99"/>
      <point x="30" y="99"/>
      <point x="52" y="99" type="curve"/>
      <point x="52" y="219"/>
      <point x="52" y="99"/>
      <point x="52" y="219" type="curve"/>
      <point x="30" y="219"/>
      <point x="52" y="219"/>
      <point x="30" y="219" type="curve"/>
      <point x="30" y="99"/>
      <point x="30" y="219"/>
      <point x="30" y="99" type="curve"/>
    </contour>
    <contour>
      <point x="299" y="631"/>
      <point x="320" y="631"/>
      <point x="299" y="631" type="curve"/>
      <point x="299" y="511"/>
      <point x="299" y="631"/>
      <point x="299" y="511" type="curve"/>
      <point x="320" y="511"/>
      <point x="299" y="511"/>
      <point x="320" y="511" type="curve"/>
      <point x="320" y="631"/>
      <point x="320" y="511"/>
      <point x="320" y="631" type="curve"/>
    </contour>
    <contour>
      <point x="183" y="-43"/>
      <point x="159" y="-43"/>
      <point x="183" y="-43" type="curve"/>
      <point x="183" y="-9"/>
      <point x="183" y="25"/>
      <point x="183" y="59" type="curve"/>
      <point x="159" y="59"/>
      <point x="183" y="59"/>
      <point x="159" y="59" type="curve"/>
      <point x="159" y="25"/>
      <point x="159" y="-9"/>
      <point x="159" y="-43" type="curve"/>
    </contour>
    <contour>
      <point x="192" y="671"/>
      <point x="167" y="671"/>
      <point x="192" y="671" type="curve"/>
      <point x="192" y="705"/>
      <point x="192" y="739"/>
      <point x="192" y="773" type="curve"/>
      <point x="167" y="773"/>
      <point x="192" y="773"/>
      <point x="167" y="773" type="curve"/>
      <point x="167" y="739"/>
      <point x="167" y="705"/>
      <point x="167" y="671" type="curve"/>
    </contour>
    <contour>
      <point x="32" y="99"/>
      <point x="45" y="118"/>
      <point x="32" y="99" type="curve"/>
      <point x="69" y="73"/>
      <point x="114" y="48"/>
      <point x="170" y="48" type="curve"/>
      <point x="268" y="48"/>
      <point x="334" y="112"/>
      <point x="334" y="198" type="curve"/>
      <point x="334" y="281"/>
      <point x="268" y="336"/>
      <point x="188" y="385" type="curve"/>
      <point x="118" y="428"/>
      <point x="72" y="470"/>
      <point x="72" y="543" type="curve"/>
      <point x="72" y="609"/>
      <point x="113" y="662"/>
      <point x="183" y="662" type="curve"/>
      <point x="234" y="662"/>
      <point x="268" y="643"/>
      <point x="308" y="613" type="curve"/>
      <point x="320" y="631"/>
      <point x="308" y="613"/>
      <point x="320" y="631" type="curve"/>
      <point x="277" y="664"/>
      <point x="240" y="683"/>
      <point x="184" y="683" type="curve"/>
      <point x="99" y="683"/>
      <point x="48" y="622"/>
      <point x="48" y="543" type="curve"/>
      <point x="48" y="462"/>
      <point x="97" y="412"/>
      <point x="174" y="365" type="curve"/>
      <point x="248" y="322"/>
      <point x="309" y="273"/>
      <point x="309" y="197" type="curve"/>
      <point x="309" y="123"/>
      <point x="255" y="69"/>
      <point x="172" y="69" type="curve"/>
      <point x="121" y="69"/>
      <point x="79" y="95"/>
      <point x="45" y="118" type="curve"/>
    </contour>
  </outline>
</glyph>
<glyph name="percent" format="1">
  <advance width="591"/>
  <unicode hex="0025"/>
  <outline>
    <contour>
      <point x="356" y="176"/>
      <point x="332" y="176"/>
      <point x="356" y="176" type="curve"/>
      <point x="356" y="264"/>
      <point x="370" y="342"/>
      <point x="446" y="342" type="curve"/>
      <point x="521" y="342"/>
      <point x="537" y="263"/>
      <point x="537" y="177" type="curve"/>
      <point x="537" y="90"/>
      <point x="523" y="10"/>
      <point x="448" y="10" type="curve"/>
      <point x="372" y="10"/>
      <point x="356" y="90"/>
      <point x="356" y="176" type="curve"/>
      <point x="332" y="176"/>
      <point x="356" y="176"/>
      <point x="332" y="176" type="curve"/>
      <point x="332" y="77"/>
      <point x="359" y="-12"/>
      <point x="447" y="-12" type="curve"/>
      <point x="535" y="-12"/>
      <point x="562" y="77"/>
      <point x="562" y="178" type="curve"/>
      <point x="562" y="277"/>
      <point x="533" y="364"/>
      <point x="447" y="364" type="curve"/>
      <point x="358" y="365"/>
      <point x="332" y="278"/>
      <point x="332" y="176" type="curve"/>
    </contour>
    <contour>
      <point x="53" y="674"/>
      <point x="30" y="674"/>
      <point x="53" y="674" type="curve"/>
      <point x="53" y="762"/>
      <point x="68" y="840"/>
      <point x="144" y="840" type="curve"/>
      <point x="219" y="841"/>
      <point x="235" y="761"/>
      <point x="235" y="675" type="curve"/>
      <point x="235" y="588"/>
      <point x="220" y="507"/>
      <point x="146" y="507" type="curve"/>
      <point x="70" y="507"/>
      <point x="53" y="588"/>
      <point x="53" y="674" type="curve"/>
      <point x="30" y="674"/>
      <point x="53" y="674"/>
      <point x="30" y="674" type="curve"/>
      <point x="30" y="574"/>
      <point x="54" y="486"/>
      <point x="145" y="486" type="curve"/>
      <point x="233" y="486"/>
      <point x="259" y="575"/>
      <point x="259" y="676" type="curve"/>
      <point x="259" y="775"/>
      <point x="231" y="862"/>
      <point x="145" y="862" type="curve"/>
      <point x="55" y="862"/>
      <point x="30" y="776"/>
      <point x="30" y="674" type="curve"/>
    </contour>
    <contour>
      <point x="157" y="1"/>
      <point x="133" y="1"/>
      <point x="157" y="1" type="curve"/>
      <point x="256" y="284"/>
      <point x="356" y="568"/>
      <point x="455" y="851" type="curve"/>
      <point x="431" y="851"/>
      <point x="455" y="851"/>
      <point x="431" y="851" type="curve"/>
      <point x="332" y="568"/>
      <point x="232" y="284"/>
      <point x="133" y="1" type="curve"/>
    </contour>
  </outline>
</glyph>
<glyph name="colon" format="1">
  <advance width="89"/>
  <unicode hex="003A"/>
  <outline>
    <contour>
      <point x="58" y="18"/>
      <point x="30" y="18"/>
      <point x="58" y="18" type="curve"/>
      <point x="58" y="27"/>
      <point x="52" y="32"/>
      <point x="43" y="32" type="curve"/>
      <point x="35" y="32"/>
      <point x="30" y="26"/>
      <point x="30" y="18" type="curve"/>
      <point x="58" y="18"/>
      <point x="30" y="18"/>
      <point x="58" y="18" type="curve"/>
      <point x="58" y="9"/>
      <point x="52" y="5"/>
      <point x="43" y="5" type="curve"/>
      <point x="35" y="5"/>
      <point x="30" y="10"/>
      <point x="30" y="18" type="curve"/>
    </contour>
    <contour>
      <point x="58" y="410"/>
      <point x="30" y="410"/>
      <point x="58" y="410" type="curve"/>
      <point x="58" y="419"/>
      <point x="52" y="424"/>
      <point x="43" y="424" type="curve"/>
      <point x="35" y="424"/>
      <point x="30" y="418"/>
      <point x="30" y="410" type="curve"/>
      <point x="58" y="410"/>
      <point x="30" y="410"/>
      <point x="58" y="410" type="curve"/>
      <point x="58" y="401"/>
      <point x="52" y="397"/>
      <point x="43" y="397" type="curve"/>
      <point x="35" y="397"/>
      <point x="30" y="402"/>
      <point x="30" y="410" type="curve"/>
    </contour>
  </outline>
</glyph>
<glyph name="semicolon" format="1">
  <advance width="165"/>
  <unicode hex="003B"/>
  <outline>
    <contour>
      <point x="111" y="307"/>
      <point x="82" y="307"/>
      <point x="111" y="307" type="curve"/>
      <point x="111" y="316"/>
      <point x="105" y="321"/>
      <point x="95" y="321" type="curve"/>
      <point x="87" y="321"/>
      <point x="82" y="315"/>
      <point x="82" y="307" type="curve"/>
      <point x="111" y="307"/>
      <point x="82" y="307"/>
      <point x="111" y="307" type="curve"/>
      <point x="111" y="298"/>
      <point x="105" y="294"/>
      <point x="95" y="294" type="curve"/>
      <point x="87" y="294"/>
      <point x="82" y="299"/>
      <point x="82" y="307" type="curve"/>
    </contour>
    <contour>
      <point x="59" y="-99"/>
      <point x="30" y="-99"/>
      <point x="59" y="-99" type="curve"/>
      <point x="84" y="-39"/>
      <point x="110" y="22"/>
      <point x="135" y="82" type="curve"/>
      <point x="102" y="82"/>
      <point x="135" y="82"/>
      <point x="102" y="82" type="curve"/>
      <point x="78" y="22"/>
      <point x="54" y="-39"/>
      <point x="30" y="-99" type="curve"/>
    </contour>
  </outline>
</glyph>
<glyph name="D" format="1">
  <advance width="557"/>
  <unicode hex="0044"/>
  <outline>
    <contour>
      <point x="162" y="22"/>
      <point x="162" y="0"/>
      <point x="162" y="22" type="curve"/>
      <point x="30" y="22"/>
      <point x="162" y="22"/>
      <point x="30" y="22" type="curve"/>
      <point x="30" y="0"/>
      <point x="30" y="22"/>
      <point x="30" y="0" type="curve"/>
      <point x="74" y="0"/>
      <point x="118" y="0"/>
      <point x="162" y="0" type="curve"/>
    </contour>
    <contour>
      <point x="162" y="722"/>
      <point x="162" y="700"/>
      <point x="162" y="722" type="curve"/>
      <point x="118" y="722"/>
      <point x="74" y="722"/>
      <point x="30" y="722" type="curve"/>
      <point x="30" y="700"/>
      <point x="30" y="722"/>
      <point x="30" y="700" type="curve"/>
      <point x="162" y="700"/>
      <point x="30" y="700"/>
      <point x="162" y="700" type="curve"/>
    </contour>
    <contour>
      <point x="149" y="722"/>
      <point x="173" y="722"/>
      <point x="149" y="722" type="curve"/>
      <point x="149" y="481"/>
      <point x="149" y="241"/>
      <point x="149" y="0" type="curve"/>
      <point x="173" y="0"/>
      <point x="149" y="0"/>
      <point x="173" y="0" type="curve"/>
      <point x="173" y="241"/>
      <point x="173" y="481"/>
      <point x="173" y="722" type="curve"/>
    </contour>
    <contour>
      <point x="162" y="0"/>
      <point x="162" y="22"/>
      <point x="162" y="0" type="curve"/>
      <point x="209" y="0"/>
      <point x="255" y="0"/>
      <point x="302" y="0" type="curve"/>
      <point x="482" y="0"/>
      <point x="526" y="145"/>
      <point x="526" y="350" type="curve"/>
      <point x="526" y="567"/>
      <point x="484" y="722"/>
      <point x="293" y="722" type="curve"/>
      <point x="250" y="722"/>
      <point x="206" y="722"/>
      <point x="162" y="722" type="curve"/>
      <point x="162" y="700"/>
      <point x="162" y="722"/>
      <point x="162" y="700" type="curve"/>
      <point x="205" y="700"/>
      <point x="249" y="700"/>
      <point x="292" y="700" type="curve"/>
      <point x="469" y="700"/>
      <point x="502" y="552"/>
      <point x="502" y="349" type="curve"/>
      <point x="502" y="159"/>
      <point x="470" y="22"/>
      <point x="304" y="22" type="curve"/>
      <point x="257" y="22"/>
      <point x="209" y="22"/>
      <point x="162" y="22" type="curve"/>
    </contour>
  </outline>
</glyph>
<glyph name="E" format="1">
  <advance width="492"/>
  <unicode hex="0045"/>
  <outline>
    <contour>
      <point x="372" y="374"/>
      <point x="394" y="374"/>
      <point x="372" y="374" type="curve"/>
      <point x="372" y="254"/>
      <point x="372" y="374"/>
      <point x="372" y="254" type="curve"/>
      <point x="394" y="254"/>
      <point x="372" y="254"/>
      <point x="394" y="254" type="curve"/>
      <point x="394" y="374"/>
      <point x="394" y="254"/>
      <point x="394" y="374" type="curve"/>
    </contour>
    <contour>
      <point x="394" y="374"/>
      <point x="372" y="374"/>
      <point x="394" y="374" type="curve"/>
      <point x="394" y="494"/>
      <point x="394" y="374"/>
      <point x="394" y="494" type="curve"/>
      <point x="372" y="494"/>
      <point x="394" y="494"/>
      <point x="372" y="494" type="curve"/>
      <point x="372" y="374"/>
      <point x="372" y="494"/>
      <point x="372" y="374" type="curve"/>
    </contour>
    <contour>
      <point x="462" y="11"/>
      <point x="440" y="11"/>
      <point x="462" y="11" type="curve"/>
      <point x="462" y="131"/>
      <point x="462" y="11"/>
      <point x="462" y="131" type="curve"/>
      <point x="440" y="131"/>
      <point x="462" y="131"/>
      <point x="440" y="131" type="curve"/>
      <point x="440" y="11"/>
      <point x="440" y="131"/>
      <point x="440" y="11" type="curve"/>
    </contour>
    <contour>
      <point x="416" y="711"/>
      <point x="438" y="711"/>
      <point x="416" y="711" type="curve"/>
      <point x="416" y="591"/>
      <point x="416" y="711"/>
      <point x="416" y="591" type="curve"/>
      <point x="438" y="591"/>
      <point x="416" y="591"/>
      <point x="438" y="591" type="curve"/>
      <point x="438" y="711"/>
      <point x="438" y="591"/>
      <point x="438" y="711" type="curve"/>
    </contour>
    <contour>
      <point x="162" y="22"/>
      <point x="162" y="0"/>
      <point x="162" y="22" type="curve"/>
      <point x="30" y="22"/>
      <point x="162" y="22"/>
      <point x="30" y="22" type="curve"/>
      <point x="30" y="0"/>
      <point x="30" y="22"/>
      <point x="30" y="0" type="curve"/>
      <point x="74" y="0"/>
      <point x="118" y="0"/>
      <point x="162" y="0" type="curve"/>
    </contour>
    <contour>
      <point x="162" y="722"/>
      <point x="162" y="700"/>
      <point x="162" y="722" type="curve"/>
      <point x="118" y="722"/>
      <point x="74" y="722"/>
      <point x="30" y="722" type="curve"/>
      <point x="30" y="700"/>
      <point x="30" y="722"/>
      <point x="30" y="700" type="curve"/>
      <point x="162" y="700"/>
      <point x="30" y="700"/>
      <point x="162" y="700" type="curve"/>
    </contour>
    <contour>
      <point x="164" y="363"/>
      <point x="164" y="385"/>
      <point x="164" y="363" type="curve"/>
      <point x="241" y="363"/>
      <point x="317" y="363"/>
      <point x="394" y="363" type="curve"/>
      <point x="394" y="385"/>
      <point x="394" y="363"/>
      <point x="394" y="385" type="curve"/>
      <point x="317" y="385"/>
      <point x="241" y="385"/>
      <point x="164" y="385" type="curve"/>
    </contour>
    <contour>
      <point x="154" y="700"/>
      <point x="154" y="722"/>
      <point x="154" y="700" type="curve"/>
      <point x="248" y="700"/>
      <point x="343" y="700"/>
      <point x="438" y="700" type="curve"/>
      <point x="438" y="722"/>
      <point x="438" y="700"/>
      <point x="438" y="722" type="curve"/>
      <point x="343" y="722"/>
      <point x="248" y="722"/>
      <point x="154" y="722" type="curve"/>
    </contour>
    <contour>
      <point x="174" y="0"/>
      <point x="149" y="0"/>
      <point x="174" y="0" type="curve"/>
      <point x="174" y="0"/>
      <point x="174" y="722"/>
      <point x="174" y="722" type="curve"/>
      <point x="149" y="722"/>
      <point x="174" y="722"/>
      <point x="149" y="722" type="curve"/>
      <point x="149" y="481"/>
      <point x="149" y="241"/>
      <point x="149" y="0" type="curve"/>
    </contour>
    <contour>
      <point x="154" y="0"/>
      <point x="154" y="22"/>
      <point x="154" y="0" type="curve"/>
      <point x="256" y="0"/>
      <point x="359" y="0"/>
      <point x="462" y="0" type="curve"/>
      <point x="462" y="22"/>
      <point x="462" y="0"/>
      <point x="462" y="22" type="curve"/>
      <point x="359" y="22"/>
      <point x="256" y="22"/>
      <point x="154" y="22" type="curve"/>
    </contour>
  </outline>
</glyph>
<glyph name="G" format="1">
  <advance width="502"/>
  <unicode hex="0047"/>
  <outline>
    <contour>
      <point x="438" y="642"/>
      <point x="459" y="642"/>
      <point x="438" y="642" type="curve"/>
      <point x="438" y="522"/>
      <point x="438" y="642"/>
      <point x="438" y="522" type="curve"/>
      <point x="459" y="522"/>
      <point x="438" y="522"/>
      <point x="459" y="522" type="curve"/>
      <point x="459" y="642"/>
      <point x="459" y="522"/>
      <point x="459" y="642" type="curve"/>
    </contour>
    <contour>
      <point x="464" y="319"/>
      <point x="464" y="297"/>
      <point x="464" y="319" type="curve"/>
      <point x="412" y="319"/>
      <point x="361" y="319"/>
      <point x="310" y="319" type="curve"/>
      <point x="310" y="297"/>
      <point x="310" y="319"/>
      <point x="310" y="297" type="curve"/>
      <point x="361" y="297"/>
      <point x="412" y="297"/>
      <point x="464" y="297" type="curve"/>
    </contour>
    <contour>
      <point x="471" y="77"/>
      <point x="449" y="77"/>
      <point x="471" y="77" type="curve"/>
      <point x="471" y="158"/>
      <point x="471" y="238"/>
      <point x="471" y="319" type="curve"/>
      <point x="449" y="319"/>
      <point x="471" y="319"/>
      <point x="449" y="319" type="curve"/>
      <point x="449" y="238"/>
      <point x="449" y="158"/>
      <point x="449" y="77" type="curve"/>
    </contour>
    <contour>
      <point x="459" y="642"/>
      <point x="447" y="624"/>
      <point x="459" y="642" type="curve"/>
      <point x="402" y="696"/>
      <point x="343" y="727"/>
      <point x="264" y="727" type="curve"/>
      <point x="84" y="727"/>
      <point x="30" y="570"/>
      <point x="30" y="365" type="curve"/>
      <point x="30" y="154"/>
      <point x="87" y="-5"/>
      <point x="272" y="-5" type="curve"/>
      <point x="355" y="-5"/>
      <point x="407" y="24"/>
      <point x="471" y="77" type="curve"/>
      <point x="459" y="93"/>
      <point x="471" y="77"/>
      <point x="459" y="93" type="curve"/>
      <point x="400" y="44"/>
      <point x="349" y="22"/>
      <point x="272" y="22" type="curve"/>
      <point x="101" y="22"/>
      <point x="54" y="171"/>
      <point x="54" y="367" type="curve"/>
      <point x="54" y="554"/>
      <point x="100" y="700"/>
      <point x="264" y="700" type="curve"/>
      <point x="338" y="700"/>
      <point x="393" y="674"/>
      <point x="447" y="624" type="curve"/>
    </contour>
  </outline>
</glyph>
<glyph name="H" format="1">
  <advance width="678"/>
  <unicode hex="0048"/>
  <outline>
    <contour>
      <point x="516" y="700"/>
      <point x="516" y="722"/>
      <point x="516" y="700" type="curve"/>
      <point x="648" y="700"/>
      <point x="516" y="700"/>
      <point x="648" y="700" type="curve"/>
      <point x="648" y="722"/>
      <point x="648" y="700"/>
      <point x="648" y="722" type="curve"/>
      <point x="604" y="722"/>
      <point x="560" y="722"/>
      <point x="516" y="722" type="curve"/>
    </contour>
    <contour>
      <point x="516" y="0"/>
      <point x="516" y="22"/>
      <point x="516" y="0" type="curve"/>
      <point x="560" y="0"/>
      <point x="604" y="0"/>
      <point x="648" y="0" type="curve"/>
      <point x="648" y="22"/>
      <point x="648" y="0"/>
      <point x="648" y="22" type="curve"/>
      <point x="516" y="22"/>
      <point x="648" y="22"/>
      <point x="516" y="22" type="curve"/>
    </contour>
    <contour>
      <point x="516" y="22"/>
      <point x="516" y="0"/>
      <point x="516" y="22" type="curve"/>
      <point x="384" y="22"/>
      <point x="516" y="22"/>
      <point x="384" y="22" type="curve"/>
      <point x="384" y="0"/>
      <point x="384" y="22"/>
      <point x="384" y="0" type="curve"/>
      <point x="428" y="0"/>
      <point x="472" y="0"/>
      <point x="516" y="0" type="curve"/>
    </contour>
    <contour>
      <point x="516" y="722"/>
      <point x="516" y="700"/>
      <point x="516" y="722" type="curve"/>
      <point x="472" y="722"/>
      <point x="428" y="722"/>
      <point x="384" y="722" type="curve"/>
      <point x="384" y="700"/>
      <point x="384" y="722"/>
      <point x="384" y="700" type="curve"/>
      <point x="516" y="700"/>
      <point x="384" y="700"/>
      <point x="516" y="700" type="curve"/>
    </contour>
    <contour>
      <point x="162" y="700"/>
      <point x="162" y="722"/>
      <point x="162" y="700" type="curve"/>
      <point x="294" y="700"/>
      <point x="162" y="700"/>
      <point x="294" y="700" type="curve"/>
      <point x="294" y="722"/>
      <point x="294" y="700"/>
      <point x="294" y="722" type="curve"/>
      <point x="250" y="722"/>
      <point x="206" y="722"/>
      <point x="162" y="722" type="curve"/>
    </contour>
    <contour>
      <point x="162" y="722"/>
      <point x="162" y="700"/>
      <point x="162" y="722" type="curve"/>
      <point x="118" y="722"/>
      <point x="74" y="722"/>
      <point x="30" y="722" type="curve"/>
      <point x="30" y="700"/>
      <point x="30" y="722"/>
      <point x="30" y="700" type="curve"/>
      <point x="162" y="700"/>
      <point x="30" y="700"/>
      <point x="162" y="700" type="curve"/>
    </contour>
    <contour>
      <point x="162" y="0"/>
      <point x="162" y="22"/>
      <point x="162" y="0" type="curve"/>
      <point x="206" y="0"/>
      <point x="162" y="0"/>
      <point x="294" y="0" type="curve"/>
      <point x="294" y="22"/>
      <point x="294" y="0"/>
      <point x="294" y="22" type="curve"/>
      <point x="162" y="22"/>
      <point x="294" y="22"/>
      <point x="162" y="22" type="curve"/>
    </contour>
    <contour>
      <point x="162" y="22"/>
      <point x="162" y="0"/>
      <point x="162" y="22" type="curve"/>
      <point x="30" y="22"/>
      <point x="162" y="22"/>
      <point x="30" y="22" type="curve"/>
      <point x="30" y="0"/>
      <point x="30" y="22"/>
      <point x="30" y="0" type="curve"/>
      <point x="74" y="0"/>
      <point x="118" y="0"/>
      <point x="162" y="0" type="curve"/>
    </contour>
    <contour>
      <point x="174" y="0"/>
      <point x="150" y="0"/>
      <point x="174" y="0" type="curve"/>
      <point x="174" y="0"/>
      <point x="174" y="722"/>
      <point x="174" y="722" type="curve"/>
      <point x="150" y="722"/>
      <point x="174" y="722"/>
      <point x="150" y="722" type="curve"/>
      <point x="150" y="481"/>
      <point x="150" y="241"/>
      <point x="150" y="0" type="curve"/>
    </contour>
    <contour>
      <point x="514" y="374"/>
      <point x="514" y="352"/>
      <point x="514" y="374" type="curve"/>
      <point x="397" y="374"/>
      <point x="279" y="374"/>
      <point x="162" y="374" type="curve"/>
      <point x="162" y="352"/>
      <point x="162" y="374"/>
      <point x="162" y="352" type="curve"/>
      <point x="279" y="352"/>
      <point x="397" y="352"/>
      <point x="514" y="352" type="curve"/>
    </contour>
    <contour>
      <point x="528" y="1"/>
      <point x="503" y="1"/>
      <point x="528" y="1" type="curve"/>
      <point x="528" y="241"/>
      <point x="528" y="481"/>
      <point x="528" y="721" type="curve"/>
      <point x="503" y="721"/>
      <point x="528" y="721"/>
      <point x="503" y="721" type="curve"/>
      <point x="503" y="721"/>
      <point x="503" y="1"/>
      <point x="503" y="1" type="curve"/>
    </contour>
  </outline>
</glyph>
<glyph name="K" format="1">
  <advance width="626"/>
  <unicode hex="004B"/>
  <outline>
    <contour>
      <point x="465" y="22"/>
      <point x="464" y="0"/>
      <point x="465" y="22" type="curve"/>
      <point x="332" y="22"/>
      <point x="465" y="22"/>
      <point x="332" y="22" type="curve"/>
      <point x="332" y="0"/>
      <point x="332" y="22"/>
      <point x="332" y="0" type="curve"/>
      <point x="376" y="0"/>
      <point x="420" y="0"/>
      <point x="464" y="0" type="curve"/>
    </contour>
    <contour>
      <point x="448" y="722"/>
      <point x="448" y="700"/>
      <point x="448" y="722" type="curve"/>
      <point x="404" y="722"/>
      <point x="360" y="722"/>
      <point x="316" y="722" type="curve"/>
      <point x="316" y="700"/>
      <point x="316" y="722"/>
      <point x="316" y="700" type="curve"/>
      <point x="448" y="700"/>
      <point x="316" y="700"/>
      <point x="448" y="700" type="curve"/>
    </contour>
    <contour>
      <point x="464" y="0"/>
      <point x="464" y="22"/>
      <point x="464" y="0" type="curve"/>
      <point x="509" y="0"/>
      <point x="553" y="0"/>
      <point x="597" y="0" type="curve"/>
      <point x="597" y="22"/>
      <point x="597" y="0"/>
      <point x="597" y="22" type="curve"/>
      <point x="464" y="22"/>
      <point x="597" y="22"/>
      <point x="464" y="22" type="curve"/>
    </contour>
    <contour>
      <point x="448" y="700"/>
      <point x="448" y="722"/>
      <point x="448" y="700" type="curve"/>
      <point x="581" y="700"/>
      <point x="448" y="700"/>
      <point x="581" y="700" type="curve"/>
      <point x="581" y="722"/>
      <point x="581" y="700"/>
      <point x="581" y="722" type="curve"/>
      <point x="536" y="722"/>
      <point x="492" y="722"/>
      <point x="448" y="722" type="curve"/>
    </contour>
    <contour>
      <point x="162" y="722"/>
      <point x="162" y="700"/>
      <point x="162" y="722" type="curve"/>
      <point x="118" y="722"/>
      <point x="74" y="722"/>
      <point x="30" y="722" type="curve"/>
      <point x="30" y="700"/>
      <point x="30" y="722"/>
      <point x="30" y="700" type="curve"/>
      <point x="162" y="700"/>
      <point x="30" y="700"/>
      <point x="162" y="700" type="curve"/>
    </contour>
    <contour>
      <point x="162" y="700"/>
      <point x="162" y="722"/>
      <point x="162" y="700" type="curve"/>
      <point x="294" y="700"/>
      <point x="162" y="700"/>
      <point x="294" y="700" type="curve"/>
      <point x="294" y="722"/>
      <point x="294" y="700"/>
      <point x="294" y="722" type="curve"/>
      <point x="250" y="722"/>
      <point x="206" y="722"/>
      <point x="162" y="722" type="curve"/>
    </contour>
    <contour>
      <point x="162" y="0"/>
      <point x="162" y="22"/>
      <point x="162" y="0" type="curve"/>
      <point x="206" y="0"/>
      <point x="162" y="0"/>
      <point x="294" y="0" type="curve"/>
      <point x="294" y="22"/>
      <point x="294" y="0"/>
      <point x="294" y="22" type="curve"/>
      <point x="162" y="22"/>
      <point x="294" y="22"/>
      <point x="162" y="22" type="curve"/>
    </contour>
    <contour>
      <point x="162" y="22"/>
      <point x="162" y="0"/>
      <point x="162" y="22" type="curve"/>
      <point x="30" y="22"/>
      <point x="162" y="22"/>
      <point x="30" y="22" type="curve"/>
      <point x="30" y="0"/>
      <point x="30" y="22"/>
      <point x="30" y="0" type="curve"/>
      <point x="74" y="0"/>
      <point x="118" y="0"/>
      <point x="162" y="0" type="curve"/>
    </contour>
    <contour>
      <point x="441" y="722"/>
      <point x="481" y="722"/>
      <point x="441" y="722" type="curve"/>
      <point x="347" y="608"/>
      <point x="253" y="494"/>
      <point x="159" y="380" type="curve"/>
      <point x="193" y="380"/>
      <point x="159" y="380"/>
      <point x="193" y="380" type="curve"/>
      <point x="289" y="494"/>
      <point x="385" y="608"/>
      <point x="481" y="722" type="curve"/>
    </contour>
    <contour>
      <point x="174" y="0"/>
      <point x="150" y="0"/>
      <point x="174" y="0" type="curve"/>
      <point x="174" y="0"/>
      <point x="174" y="722"/>
      <point x="174" y="722" type="curve"/>
      <point x="150" y="722"/>
      <point x="174" y="722"/>
      <point x="150" y="722" type="curve"/>
      <point x="150" y="481"/>
      <point x="150" y="241"/>
      <point x="150" y="0" type="curve"/>
    </contour>
    <contour>
      <point x="498" y="0"/>
      <point x="457" y="0"/>
      <point x="498" y="0" type="curve"/>
      <point x="396" y="127"/>
      <point x="294" y="253"/>
      <point x="193" y="380" type="curve"/>
      <point x="159" y="380"/>
      <point x="193" y="380"/>
      <point x="159" y="380" type="curve"/>
      <point x="258" y="254"/>
      <point x="357" y="126"/>
      <point x="457" y="0" type="curve"/>
    </contour>
  </outline>
</glyph>
<glyph name="N" format="1">
  <advance width="703"/>
  <unicode hex="004E"/>
  <outline>
    <contour>
      <point x="163" y="722"/>
      <point x="163" y="700"/>
      <point x="163" y="722" type="curve"/>
      <point x="119" y="722"/>
      <point x="75" y="722"/>
      <point x="31" y="722" type="curve"/>
      <point x="31" y="700"/>
      <point x="31" y="722"/>
      <point x="31" y="700" type="curve"/>
      <point x="163" y="700"/>
      <point x="31" y="700"/>
      <point x="163" y="700" type="curve"/>
    </contour>
    <contour>
      <point x="541" y="700"/>
      <point x="541" y="722"/>
      <point x="541" y="700" type="curve"/>
      <point x="673" y="700"/>
      <point x="541" y="700"/>
      <point x="673" y="700" type="curve"/>
      <point x="673" y="722"/>
      <point x="673" y="700"/>
      <point x="673" y="722" type="curve"/>
      <point x="629" y="722"/>
      <point x="585" y="722"/>
      <point x="541" y="722" type="curve"/>
    </contour>
    <contour>
      <point x="541" y="722"/>
      <point x="541" y="700"/>
      <point x="541" y="722" type="curve"/>
      <point x="497" y="722"/>
      <point x="453" y="722"/>
      <point x="409" y="722" type="curve"/>
      <point x="409" y="700"/>
      <point x="409" y="722"/>
      <point x="409" y="700" type="curve"/>
      <point x="541" y="700"/>
      <point x="409" y="700"/>
      <point x="541" y="700" type="curve"/>
    </contour>
    <contour>
      <point x="162" y="22"/>
      <point x="162" y="0"/>
      <point x="162" y="22" type="curve"/>
      <point x="30" y="22"/>
      <point x="162" y="22"/>
      <point x="30" y="22" type="curve"/>
      <point x="30" y="0"/>
      <point x="30" y="22"/>
      <point x="30" y="0" type="curve"/>
      <point x="74" y="0"/>
      <point x="118" y="0"/>
      <point x="162" y="0" type="curve"/>
    </contour>
    <contour>
      <point x="162" y="0"/>
      <point x="162" y="22"/>
      <point x="162" y="0" type="curve"/>
      <point x="206" y="0"/>
      <point x="162" y="0"/>
      <point x="294" y="0" type="curve"/>
      <point x="294" y="22"/>
      <point x="294" y="0"/>
      <point x="294" y="22" type="curve"/>
      <point x="162" y="22"/>
      <point x="294" y="22"/>
      <point x="162" y="22" type="curve"/>
    </contour>
    <contour>
      <point x="553" y="0"/>
      <point x="524" y="0"/>
      <point x="553" y="0" type="curve"/>
      <point x="428" y="241"/>
      <point x="303" y="481"/>
      <point x="178" y="722" type="curve"/>
      <point x="149" y="722"/>
      <point x="178" y="722"/>
      <point x="149" y="722" type="curve"/>
      <point x="274" y="481"/>
      <point x="399" y="241"/>
      <point x="524" y="0" type="curve"/>
    </contour>
    <contour>
      <point x="528" y="722"/>
      <point x="552" y="722"/>
      <point x="528" y="722" type="curve"/>
      <point x="528" y="481"/>
      <point x="528" y="241"/>
      <point x="528" y="0" type="curve"/>
      <point x="552" y="0"/>
      <point x="528" y="0"/>
      <point x="552" y="0" type="curve"/>
      <point x="552" y="241"/>
      <point x="552" y="481"/>
      <point x="552" y="722" type="curve"/>
    </contour>
    <contour>
      <point x="174" y="0"/>
      <point x="150" y="0"/>
      <point x="174" y="0" type="curve"/>
      <point x="174" y="241"/>
      <point x="174" y="481"/>
      <point x="174" y="722" type="curve"/>
      <point x="150" y="722"/>
      <point x="174" y="722"/>
      <point x="150" y="722" type="curve"/>
      <point x="150" y="481"/>
      <point x="150" y="241"/>
      <point x="150" y="0" type="curve"/>
    </contour>
  </outline>
</glyph>
<glyph name="Q" format="1">
  <advance width="559"/>
  <unicode hex="0051"/>
  <outline>
    <contour>
      <point x="241" y="4"/>
      <point x="261" y="15"/>
      <point x="241" y="4" type="curve"/>
      <point x="300" y="-151"/>
      <point x="376" y="-240"/>
      <point x="529" y="-240" type="curve"/>
      <point x="529" y="-217"/>
      <point x="529" y="-240"/>
      <point x="529" y="-217" type="curve"/>
      <point x="387" y="-217"/>
      <point x="318" y="-131"/>
      <point x="261" y="15" type="curve"/>
    </contour>
    <contour>
      <point x="54" y="360"/>
      <point x="30" y="360"/>
      <point x="54" y="360" type="curve"/>
      <point x="54" y="543"/>
      <point x="86" y="698"/>
      <point x="244" y="698" type="curve"/>
      <point x="401" y="698"/>
      <point x="436" y="545"/>
      <point x="436" y="363" type="curve"/>
      <point x="436" y="180"/>
      <point x="405" y="22"/>
      <point x="247" y="22" type="curve"/>
      <point x="88" y="22"/>
      <point x="54" y="177"/>
      <point x="54" y="360" type="curve"/>
      <point x="30" y="360"/>
      <point x="54" y="360"/>
      <point x="30" y="360" type="curve"/>
      <point x="30" y="162"/>
      <point x="74" y="-5"/>
      <point x="246" y="-5" type="curve"/>
      <point x="419" y="-5"/>
      <point x="460" y="165"/>
      <point x="460" y="364" type="curve"/>
      <point x="460" y="561"/>
      <point x="417" y="727"/>
      <point x="246" y="727" type="curve"/>
      <point x="74" y="727"/>
      <point x="30" y="558"/>
      <point x="30" y="360" type="curve"/>
    </contour>
  </outline>
</glyph>
<glyph name="R" format="1">
  <advance width="640"/>
  <unicode hex="0052"/>
  <outline>
    <contour>
      <point x="477" y="0"/>
      <point x="477" y="22"/>
      <point x="477" y="0" type="curve"/>
      <point x="521" y="0"/>
      <point x="565" y="0"/>
      <point x="609" y="0" type="curve"/>
      <point x="609" y="22"/>
      <point x="609" y="0"/>
      <point x="609" y="22" type="curve"/>
      <point x="477" y="22"/>
      <point x="609" y="22"/>
      <point x="477" y="22" type="curve"/>
    </contour>
    <contour>
      <point x="162" y="722"/>
      <point x="162" y="700"/>
      <point x="162" y="722" type="curve"/>
      <point x="118" y="722"/>
      <point x="74" y="722"/>
      <point x="30" y="722" type="curve"/>
      <point x="30" y="700"/>
      <point x="30" y="722"/>
      <point x="30" y="700" type="curve"/>
      <point x="162" y="700"/>
      <point x="30" y="700"/>
      <point x="162" y="700" type="curve"/>
    </contour>
    <contour>
      <point x="162" y="22"/>
      <point x="162" y="0"/>
      <point x="162" y="22" type="curve"/>
      <point x="30" y="22"/>
      <point x="162" y="22"/>
      <point x="30" y="22" type="curve"/>
      <point x="30" y="0"/>
      <point x="30" y="22"/>
      <point x="30" y="0" type="curve"/>
      <point x="74" y="0"/>
      <point x="118" y="0"/>
      <point x="162" y="0" type="curve"/>
    </contour>
    <contour>
      <point x="162" y="0"/>
      <point x="162" y="22"/>
      <point x="162" y="0" type="curve"/>
      <point x="206" y="0"/>
      <point x="162" y="0"/>
      <point x="294" y="0" type="curve"/>
      <point x="294" y="22"/>
      <point x="294" y="0"/>
      <point x="294" y="22" type="curve"/>
      <point x="162" y="22"/>
      <point x="294" y="22"/>
      <point x="162" y="22" type="curve"/>
    </contour>
    <contour>
      <point x="293" y="354"/>
      <point x="322" y="354"/>
      <point x="293" y="354" type="curve"/>
      <point x="352" y="236"/>
      <point x="412" y="118"/>
      <point x="472" y="0" type="curve"/>
      <point x="501" y="0"/>
      <point x="472" y="0"/>
      <point x="501" y="0" type="curve"/>
      <point x="441" y="118"/>
      <point x="382" y="236"/>
      <point x="322" y="354" type="curve"/>
    </contour>
    <contour>
      <point x="175" y="0"/>
      <point x="151" y="0"/>
      <point x="175" y="0" type="curve"/>
      <point x="175" y="241"/>
      <point x="175" y="481"/>
      <point x="175" y="722" type="curve"/>
      <point x="151" y="722"/>
      <point x="175" y="722"/>
      <point x="151" y="722" type="curve"/>
      <point x="151" y="481"/>
      <point x="151" y="241"/>
      <point x="151" y="0" type="curve"/>
    </contour>
    <contour>
      <point x="164" y="340"/>
      <point x="164" y="362"/>
      <point x="164" y="340" type="curve"/>
      <point x="204" y="340"/>
      <point x="243" y="340"/>
      <point x="283" y="340" type="curve"/>
      <point x="391" y="340"/>
      <point x="440" y="420"/>
      <point x="440" y="537" type="curve"/>
      <point x="440" y="647"/>
      <point x="392" y="722"/>
      <point x="290" y="722" type="curve"/>
      <point x="248" y="722"/>
      <point x="206" y="722"/>
      <point x="164" y="722" type="curve"/>
      <point x="164" y="700"/>
      <point x="164" y="722"/>
      <point x="164" y="700" type="curve"/>
      <point x="205" y="700"/>
      <point x="245" y="700"/>
      <point x="285" y="700" type="curve"/>
      <point x="376" y="700"/>
      <point x="416" y="632"/>
      <point x="416" y="535" type="curve"/>
      <point x="416" y="434"/>
      <point x="378" y="362"/>
      <point x="286" y="362" type="curve"/>
      <point x="245" y="362"/>
      <point x="205" y="362"/>
      <point x="164" y="362" type="curve"/>
    </contour>
  </outline>
</glyph>
<glyph name="U" format="1">
  <advance width="675"/>
  <unicode hex="0055"/>
  <outline>
    <contour>
      <point x="512" y="700"/>
      <point x="512" y="722"/>
      <point x="512" y="700" type="curve"/>
      <point x="644" y="700"/>
      <point x="512" y="700"/>
      <point x="644" y="700" type="curve"/>
      <point x="644" y="722"/>
      <point x="644" y="700"/>
      <point x="644" y="722" type="curve"/>
      <point x="600" y="722"/>
      <point x="556" y="722"/>
      <point x="512" y="722" type="curve"/>
    </contour>
    <contour>
      <point x="512" y="722"/>
      <point x="512" y="700"/>
      <point x="512" y="722" type="curve"/>
      <point x="468" y="722"/>
      <point x="424" y="722"/>
      <point x="380" y="722" type="curve"/>
      <point x="380" y="700"/>
      <point x="380" y="722"/>
      <point x="380" y="700" type="curve"/>
      <point x="512" y="700"/>
      <point x="380" y="700"/>
      <point x="512" y="700" type="curve"/>
    </contour>
    <contour>
      <point x="162" y="722"/>
      <point x="162" y="700"/>
      <point x="162" y="722" type="curve"/>
      <point x="118" y="722"/>
      <point x="74" y="722"/>
      <point x="30" y="722" type="curve"/>
      <point x="30" y="700"/>
      <point x="30" y="722"/>
      <point x="30" y="700" type="curve"/>
      <point x="162" y="700"/>
      <point x="30" y="700"/>
      <point x="162" y="700" type="curve"/>
    </contour>
    <contour>
      <point x="162" y="700"/>
      <point x="162" y="722"/>
      <point x="162" y="700" type="curve"/>
      <point x="294" y="700"/>
      <point x="162" y="700"/>
      <point x="294" y="700" type="curve"/>
      <point x="294" y="722"/>
      <point x="294" y="700"/>
      <point x="294" y="722" type="curve"/>
      <point x="250" y="722"/>
      <point x="206" y="722"/>
      <point x="162" y="722" type="curve"/>
    </contour>
    <contour>
      <point x="149" y="722"/>
      <point x="174" y="722"/>
      <point x="149" y="722" type="curve"/>
      <point x="149" y="572"/>
      <point x="149" y="421"/>
      <point x="149" y="271" type="curve"/>
      <point x="149" y="105"/>
      <point x="189" y="-1"/>
      <point x="337" y="-1" type="curve"/>
      <point x="482" y="-1"/>
      <point x="524" y="102"/>
      <point x="524" y="263" type="curve"/>
      <point x="524" y="416"/>
      <point x="524" y="569"/>
      <point x="524" y="722" type="curve"/>
      <point x="499" y="722"/>
      <point x="524" y="722"/>
      <point x="499" y="722" type="curve"/>
      <point x="499" y="568"/>
      <point x="499" y="413"/>
      <point x="499" y="259" type="curve"/>
      <point x="499" y="116"/>
      <point x="467" y="23"/>
      <point x="340" y="23" type="curve"/>
      <point x="205" y="23"/>
      <point x="174" y="123"/>
      <point x="174" y="275" type="curve"/>
      <point x="174" y="424"/>
      <point x="174" y="573"/>
      <point x="174" y="722" type="curve"/>
    </contour>
  </outline>
</glyph>
<glyph name="W" format="1">
  <advance width="840"/>
  <unicode hex="0057"/>
  <outline>
    <contour>
      <point x="422" y="700"/>
      <point x="422" y="722"/>
      <point x="422" y="700" type="curve"/>
      <point x="555" y="700"/>
      <point x="422" y="700"/>
      <point x="555" y="700" type="curve"/>
      <point x="555" y="722"/>
      <point x="555" y="700"/>
      <point x="555" y="722" type="curve"/>
      <point x="511" y="722"/>
      <point x="467" y="722"/>
      <point x="422" y="722" type="curve"/>
    </contour>
    <contour>
      <point x="422" y="722"/>
      <point x="422" y="700"/>
      <point x="422" y="722" type="curve"/>
      <point x="378" y="722"/>
      <point x="334" y="722"/>
      <point x="290" y="722" type="curve"/>
      <point x="290" y="700"/>
      <point x="290" y="722"/>
      <point x="290" y="700" type="curve"/>
      <point x="422" y="700"/>
      <point x="290" y="700"/>
      <point x="422" y="700" type="curve"/>
    </contour>
    <contour>
      <point x="162" y="700"/>
      <point x="162" y="722"/>
      <point x="162" y="700" type="curve"/>
      <point x="294" y="700"/>
      <point x="162" y="700"/>
      <point x="294" y="700" type="curve"/>
      <point x="294" y="722"/>
      <point x="294" y="700"/>
      <point x="294" y="722" type="curve"/>
      <point x="250" y="722"/>
      <point x="206" y="722"/>
      <point x="162" y="722" type="curve"/>
    </contour>
    <contour>
      <point x="162" y="722"/>
      <point x="162" y="700"/>
      <point x="162" y="722" type="curve"/>
      <point x="118" y="722"/>
      <point x="74" y="722"/>
      <point x="30" y="722" type="curve"/>
      <point x="30" y="700"/>
      <point x="30" y="722"/>
      <point x="30" y="700" type="curve"/>
      <point x="162" y="700"/>
      <point x="30" y="700"/>
      <point x="162" y="700" type="curve"/>
    </contour>
    <contour>
      <point x="677" y="722"/>
      <point x="677" y="700"/>
      <point x="677" y="722" type="curve"/>
      <point x="633" y="722"/>
      <point x="589" y="722"/>
      <point x="545" y="722" type="curve"/>
      <point x="545" y="700"/>
      <point x="545" y="722"/>
      <point x="545" y="700" type="curve"/>
      <point x="677" y="700"/>
      <point x="545" y="700"/>
      <point x="677" y="700" type="curve"/>
    </contour>
    <contour>
      <point x="677" y="700"/>
      <point x="677" y="722"/>
      <point x="677" y="700" type="curve"/>
      <point x="809" y="700"/>
      <point x="677" y="700"/>
      <point x="809" y="700" type="curve"/>
      <point x="809" y="722"/>
      <point x="809" y="700"/>
      <point x="809" y="722" type="curve"/>
      <point x="765" y="722"/>
      <point x="721" y="722"/>
      <point x="677" y="722" type="curve"/>
    </contour>
    <contour>
      <point x="292" y="0"/>
      <point x="273" y="0"/>
      <point x="292" y="0" type="curve"/>
      <point x="339" y="241"/>
      <point x="386" y="481"/>
      <point x="433" y="722" type="curve"/>
      <point x="410" y="722"/>
      <point x="433" y="722"/>
      <point x="410" y="722" type="curve"/>
      <point x="364" y="481"/>
      <point x="319" y="241"/>
      <point x="273" y="0" type="curve"/>
    </contour>
    <contour>
      <point x="415" y="722"/>
      <point x="438" y="722"/>
      <point x="415" y="722" type="curve"/>
      <point x="457" y="481"/>
      <point x="500" y="241"/>
      <point x="542" y="0" type="curve"/>
      <point x="560" y="0"/>
      <point x="542" y="0"/>
      <point x="560" y="0" type="curve"/>
      <point x="520" y="241"/>
      <point x="479" y="481"/>
      <point x="438" y="722" type="curve"/>
    </contour>
    <contour>
      <point x="141" y="722"/>
      <point x="166" y="722"/>
      <point x="141" y="722" type="curve"/>
      <point x="184" y="481"/>
      <point x="226" y="241"/>
      <point x="269" y="0" type="curve"/>
      <point x="287" y="0"/>
      <point x="269" y="0"/>
      <point x="287" y="0" type="curve"/>
      <point x="247" y="241"/>
      <point x="206" y="481"/>
      <point x="166" y="722" type="curve"/>
    </contour>
    <contour>
      <point x="673" y="722"/>
      <point x="699" y="722"/>
      <point x="673" y="722" type="curve"/>
      <point x="631" y="481"/>
      <point x="589" y="241"/>
      <point x="546" y="0" type="curve"/>
      <point x="565" y="0"/>
      <point x="546" y="0"/>
      <point x="565" y="0" type="curve"/>
      <point x="609" y="241"/>
      <point x="654" y="481"/>
      <point x="699" y="722" type="curve"/>
    </contour>
  </outline>
</glyph>
<glyph name="X" format="1">
  <advance width="673"/>
  <unicode hex="0058"/>
  <outline>
    <contour>
      <point x="162" y="0"/>
      <point x="162" y="22"/>
      <point x="162" y="0" type="curve"/>
      <point x="206" y="0"/>
      <point x="162" y="0"/>
      <point x="294" y="0" type="curve"/>
      <point x="294" y="22"/>
      <point x="294" y="0"/>
      <point x="294" y="22" type="curve"/>
      <point x="162" y="22"/>
      <point x="294" y="22"/>
      <point x="162" y="22" type="curve"/>
    </contour>
    <contour>
      <point x="162" y="22"/>
      <point x="162" y="0"/>
      <point x="162" y="22" type="curve"/>
      <point x="30" y="22"/>
      <point x="162" y="22"/>
      <point x="30" y="22" type="curve"/>
      <point x="30" y="0"/>
      <point x="30" y="22"/>
      <point x="30" y="0" type="curve"/>
      <point x="74" y="0"/>
      <point x="118" y="0"/>
      <point x="162" y="0" type="curve"/>
    </contour>
    <contour>
      <point x="511" y="0"/>
      <point x="511" y="22"/>
      <point x="511" y="0" type="curve"/>
      <point x="555" y="0"/>
      <point x="599" y="0"/>
      <point x="643" y="0" type="curve"/>
      <point x="643" y="22"/>
      <point x="643" y="0"/>
      <point x="643" y="22" type="curve"/>
      <point x="511" y="22"/>
      <point x="643" y="22"/>
      <point x="511" y="22" type="curve"/>
    </contour>
    <contour>
      <point x="511" y="22"/>
      <point x="511" y="0"/>
      <point x="511" y="22" type="curve"/>
      <point x="379" y="22"/>
      <point x="511" y="22"/>
      <point x="379" y="22" type="curve"/>
      <point x="379" y="0"/>
      <point x="379" y="22"/>
      <point x="379" y="0" type="curve"/>
      <point x="423" y="0"/>
      <point x="467" y="0"/>
      <point x="511" y="0" type="curve"/>
    </contour>
    <contour>
      <point x="493" y="700"/>
      <point x="493" y="722"/>
      <point x="493" y="700" type="curve"/>
      <point x="625" y="700"/>
      <point x="493" y="700"/>
      <point x="625" y="700" type="curve"/>
      <point x="625" y="722"/>
      <point x="625" y="700"/>
      <point x="625" y="722" type="curve"/>
      <point x="581" y="722"/>
      <point x="537" y="722"/>
      <point x="493" y="722" type="curve"/>
    </contour>
    <contour>
      <point x="493" y="722"/>
      <point x="493" y="700"/>
      <point x="493" y="722" type="curve"/>
      <point x="449" y="722"/>
      <point x="405" y="722"/>
      <point x="361" y="722" type="curve"/>
      <point x="361" y="700"/>
      <point x="361" y="722"/>
      <point x="361" y="700" type="curve"/>
      <point x="493" y="700"/>
      <point x="361" y="700"/>
      <point x="493" y="700" type="curve"/>
    </contour>
    <contour>
      <point x="183" y="722"/>
      <point x="183" y="700"/>
      <point x="183" y="722" type="curve"/>
      <point x="139" y="722"/>
      <point x="95" y="722"/>
      <point x="51" y="722" type="curve"/>
      <point x="51" y="700"/>
      <point x="51" y="722"/>
      <point x="51" y="700" type="curve"/>
      <point x="183" y="700"/>
      <point x="51" y="700"/>
      <point x="183" y="700" type="curve"/>
    </contour>
    <contour>
      <point x="183" y="700"/>
      <point x="183" y="722"/>
      <point x="183" y="700" type="curve"/>
      <point x="315" y="700"/>
      <point x="183" y="700"/>
      <point x="315" y="700" type="curve"/>
      <point x="315" y="722"/>
      <point x="315" y="700"/>
      <point x="315" y="722" type="curve"/>
      <point x="271" y="722"/>
      <point x="227" y="722"/>
      <point x="183" y="722" type="curve"/>
    </contour>
    <contour>
      <point x="488" y="722"/>
      <point x="516" y="722"/>
      <point x="488" y="722" type="curve"/>
      <point x="372" y="481"/>
      <point x="255" y="241"/>
      <point x="138" y="0" type="curve"/>
      <point x="170" y="0"/>
      <point x="138" y="0"/>
      <point x="170" y="0" type="curve"/>
      <point x="285" y="241"/>
      <point x="401" y="481"/>
      <point x="516" y="722" type="curve"/>
    </contour>
    <contour>
      <point x="162" y="722"/>
      <point x="190" y="722"/>
      <point x="162" y="722" type="curve"/>
      <point x="277" y="481"/>
      <point x="391" y="241"/>
      <point x="506" y="0" type="curve"/>
      <point x="536" y="0"/>
      <point x="506" y="0"/>
      <point x="536" y="0" type="curve"/>
      <point x="421" y="241"/>
      <point x="306" y="481"/>
      <point x="190" y="722" type="curve"/>
    </contour>
  </outline>
</glyph>
<glyph name="Y" format="1">
  <advance width="645"/>
  <unicode hex="0059"/>
  <outline>
    <contour>
      <point x="318" y="22"/>
      <point x="318" y="0"/>
      <point x="318" y="22" type="curve"/>
      <point x="186" y="22"/>
      <point x="318" y="22"/>
      <point x="186" y="22" type="curve"/>
      <point x="186" y="0"/>
      <point x="186" y="22"/>
      <point x="186" y="0" type="curve"/>
      <point x="230" y="0"/>
      <point x="274" y="0"/>
      <point x="318" y="0" type="curve"/>
    </contour>
    <contour>
      <point x="318" y="0"/>
      <point x="318" y="22"/>
      <point x="318" y="0" type="curve"/>
      <point x="362" y="0"/>
      <point x="406" y="0"/>
      <point x="450" y="0" type="curve"/>
      <point x="450" y="22"/>
      <point x="450" y="0"/>
      <point x="450" y="22" type="curve"/>
      <point x="318" y="22"/>
      <point x="450" y="22"/>
      <point x="318" y="22" type="curve"/>
    </contour>
    <contour>
      <point x="483" y="722"/>
      <point x="483" y="700"/>
      <point x="483" y="722" type="curve"/>
      <point x="439" y="722"/>
      <point x="395" y="722"/>
      <point x="351" y="722" type="curve"/>
      <point x="351" y="700"/>
      <point x="351" y="722"/>
      <point x="351" y="700" type="curve"/>
      <point x="483" y="700"/>
      <point x="351" y="700"/>
      <point x="483" y="700" type="curve"/>
    </contour>
    <contour>
      <point x="162" y="722"/>
      <point x="162" y="700"/>
      <point x="162" y="722" type="curve"/>
      <point x="118" y="722"/>
      <point x="74" y="722"/>
      <point x="30" y="722" type="curve"/>
      <point x="30" y="700"/>
      <point x="30" y="722"/>
      <point x="30" y="700" type="curve"/>
      <point x="162" y="700"/>
      <point x="30" y="700"/>
      <point x="162" y="700" type="curve"/>
    </contour>
    <contour>
      <point x="162" y="700"/>
      <point x="162" y="722"/>
      <point x="162" y="700" type="curve"/>
      <point x="294" y="700"/>
      <point x="162" y="700"/>
      <point x="294" y="700" type="curve"/>
      <point x="294" y="722"/>
      <point x="294" y="700"/>
      <point x="294" y="722" type="curve"/>
      <point x="250" y="722"/>
      <point x="206" y="722"/>
      <point x="162" y="722" type="curve"/>
    </contour>
    <contour>
      <point x="483" y="700"/>
      <point x="483" y="722"/>
      <point x="483" y="700" type="curve"/>
      <point x="616" y="700"/>
      <point x="483" y="700"/>
      <point x="616" y="700" type="curve"/>
      <point x="616" y="722"/>
      <point x="616" y="700"/>
      <point x="616" y="722" type="curve"/>
      <point x="571" y="722"/>
      <point x="527" y="722"/>
      <point x="483" y="722" type="curve"/>
    </contour>
    <contour>
      <point x="141" y="722"/>
      <point x="167" y="722"/>
      <point x="141" y="722" type="curve"/>
      <point x="195" y="594"/>
      <point x="250" y="465"/>
      <point x="305" y="337" type="curve"/>
      <point x="331" y="337"/>
      <point x="305" y="337"/>
      <point x="331" y="337" type="curve"/>
      <point x="276" y="465"/>
      <point x="222" y="594"/>
      <point x="167" y="722" type="curve"/>
    </contour>
    <contour>
      <point x="479" y="722"/>
      <point x="505" y="722"/>
      <point x="479" y="722" type="curve"/>
      <point x="421" y="594"/>
      <point x="363" y="465"/>
      <point x="305" y="337" type="curve"/>
      <point x="331" y="337"/>
      <point x="305" y="337"/>
      <point x="331" y="337" type="curve"/>
      <point x="389" y="465"/>
      <point x="447" y="594"/>
      <point x="505" y="722" type="curve"/>
    </contour>
    <contour>
      <point x="331" y="0"/>
      <point x="305" y="0"/>
      <point x="331" y="0" type="curve"/>
      <point x="331" y="115"/>
      <point x="331" y="231"/>
      <point x="331" y="346" type="curve"/>
      <point x="305" y="346"/>
      <point x="331" y="346"/>
      <point x="305" y="346" type="curve"/>
      <point x="305" y="231"/>
      <point x="305" y="115"/>
      <point x="305" y="0" type="curve"/>
    </contour>
  </outline>
</glyph>
<glyph name="backslash" format="1">
  <advance width="360"/>
  <unicode hex="005C"/>
  <outline>
    <contour>
      <point x="330" y="-68"/>
      <point x="304" y="-68"/>
      <point x="330" y="-68" type="curve"/>
      <point x="238" y="236"/>
      <point x="147" y="540"/>
      <point x="55" y="844" type="curve"/>
      <point x="30" y="844"/>
      <point x="55" y="844"/>
      <point x="30" y="844" type="curve"/>
      <point x="121" y="540"/>
      <point x="213" y="236"/>
      <point x="304" y="-68" type="curve"/>
    </contour>
  </outline>
</glyph>
<glyph name="a" format="1">
  <advance width="445"/>
  <unicode hex="0061"/>
  <outline>
    <contour>
      <point x="43" y="464"/>
      <point x="65" y="464"/>
      <point x="43" y="464" type="curve"/>
      <point x="43" y="344"/>
      <point x="43" y="464"/>
      <point x="43" y="344" type="curve"/>
      <point x="65" y="344"/>
      <point x="43" y="344"/>
      <point x="65" y="344" type="curve"/>
      <point x="65" y="464"/>
      <point x="65" y="344"/>
      <point x="65" y="464" type="curve"/>
    </contour>
    <contour>
      <point x="300" y="0"/>
      <point x="276" y="0"/>
      <point x="300" y="0" type="curve"/>
      <point x="300" y="130"/>
      <point x="300" y="260"/>
      <point x="300" y="390" type="curve"/>
      <point x="300" y="488"/>
      <point x="266" y="538"/>
      <point x="180" y="538" type="curve"/>
      <point x="114" y="538"/>
      <point x="73" y="501"/>
      <point x="43" y="464" type="curve"/>
      <point x="52" y="446"/>
      <point x="43" y="464"/>
      <point x="52" y="446" type="curve"/>
      <point x="80" y="479"/>
      <point x="117" y="511"/>
      <point x="177" y="511" type="curve"/>
      <point x="250" y="511"/>
      <point x="276" y="468"/>
      <point x="276" y="383" type="curve"/>
      <point x="276" y="255"/>
      <point x="276" y="128"/>
      <point x="276" y="0" type="curve"/>
    </contour>
    <contour>
      <point x="289" y="0"/>
      <point x="289" y="22"/>
      <point x="289" y="0" type="curve"/>
      <point x="331" y="0"/>
      <point x="373" y="0"/>
      <point x="414" y="0" type="curve"/>
      <point x="414" y="22"/>
      <point x="414" y="0"/>
      <point x="414" y="22" type="curve"/>
      <point x="289" y="22"/>
      <point x="414" y="22"/>
      <point x="289" y="22" type="curve"/>
    </contour>
    <contour>
      <point x="281" y="165"/>
      <point x="292" y="155"/>
      <point x="281" y="165" type="curve"/>
      <point x="244" y="94"/>
      <point x="219" y="22"/>
      <point x="142" y="22" type="curve"/>
      <point x="77" y="22"/>
      <point x="54" y="84"/>
      <point x="54" y="157" type="curve"/>
      <point x="54" y="217"/>
      <point x="83" y="262"/>
      <point x="141" y="273" type="curve"/>
      <point x="194" y="284"/>
      <point x="235" y="292"/>
      <point x="288" y="301" type="curve"/>
      <point x="287" y="320"/>
      <point x="288" y="301"/>
      <point x="287" y="320" type="curve"/>
      <point x="235" y="310"/>
      <point x="194" y="303"/>
      <point x="142" y="293" type="curve"/>
      <point x="71" y="279"/>
      <point x="30" y="227"/>
      <point x="30" y="155" type="curve"/>
      <point x="30" y="71"/>
      <point x="61" y="0"/>
      <point x="136" y="0" type="curve"/>
      <point x="221" y="0"/>
      <point x="254" y="76"/>
      <point x="292" y="155" type="curve"/>
    </contour>
  </outline>
</glyph>
<glyph name="b" format="1">
  <advance width="496"/>
  <unicode hex="0062"/>
  <outline>
    <contour>
      <point x="162" y="800"/>
      <point x="162" y="778"/>
      <point x="162" y="800" type="curve"/>
      <point x="118" y="800"/>
      <point x="74" y="800"/>
      <point x="30" y="800" type="curve"/>
      <point x="30" y="778"/>
      <point x="30" y="800"/>
      <point x="30" y="778" type="curve"/>
      <point x="162" y="778"/>
      <point x="30" y="778"/>
      <point x="162" y="778" type="curve"/>
    </contour>
    <contour>
      <point x="167" y="408"/>
      <point x="155" y="424"/>
      <point x="167" y="408" type="curve"/>
      <point x="191" y="451"/>
      <point x="239" y="511"/>
      <point x="310" y="511" type="curve"/>
      <point x="422" y="511"/>
      <point x="443" y="394"/>
      <point x="443" y="263" type="curve"/>
      <point x="445" y="134"/>
      <point x="419" y="21"/>
      <point x="309" y="22" type="curve"/>
      <point x="246" y="22"/>
      <point x="205" y="57"/>
      <point x="169" y="110" type="curve"/>
      <point x="154" y="97"/>
      <point x="169" y="110"/>
      <point x="154" y="97" type="curve"/>
      <point x="191" y="36"/>
      <point x="239" y="0"/>
      <point x="310" y="0" type="curve"/>
      <point x="433" y="0"/>
      <point x="466" y="123"/>
      <point x="467" y="264" type="curve"/>
      <point x="467" y="407"/>
      <point x="435" y="533"/>
      <point x="312" y="533" type="curve"/>
      <point x="235" y="533"/>
      <point x="181" y="471"/>
      <point x="155" y="424" type="curve"/>
    </contour>
    <contour>
      <point x="173" y="0"/>
      <point x="149" y="0"/>
      <point x="173" y="0" type="curve"/>
      <point x="173" y="267"/>
      <point x="173" y="533"/>
      <point x="173" y="800" type="curve"/>
      <point x="149" y="800"/>
      <point x="173" y="800"/>
      <point x="149" y="800" type="curve"/>
      <point x="149" y="533"/>
      <point x="149" y="267"/>
      <point x="149" y="0" type="curve"/>
    </contour>
    <contour>
      <point x="162" y="22"/>
      <point x="162" y="0"/>
      <point x="162" y="22" type="curve"/>
      <point x="30" y="22"/>
      <point x="162" y="22"/>
      <point x="30" y="22" type="curve"/>
      <point x="30" y="0"/>
      <point x="30" y="22"/>
      <point x="30" y="0" type="curve"/>
      <point x="74" y="0"/>
      <point x="118" y="0"/>
      <point x="162" y="0" type="curve"/>
    </contour>
  </outline>
</glyph>
<glyph name="d" format="1">
  <advance width="502"/>
  <unicode hex="0064"/>
  <outline>
    <contour>
      <point x="340" y="800"/>
      <point x="340" y="778"/>
      <point x="340" y="800" type="curve"/>
      <point x="296" y="800"/>
      <point x="252" y="800"/>
      <point x="207" y="800" type="curve"/>
      <point x="207" y="778"/>
      <point x="207" y="800"/>
      <point x="207" y="778" type="curve"/>
      <point x="340" y="778"/>
      <point x="207" y="778"/>
      <point x="340" y="778" type="curve"/>
    </contour>
    <contour>
      <point x="340" y="0"/>
      <point x="340" y="22"/>
      <point x="340" y="0" type="curve"/>
      <point x="384" y="0"/>
      <point x="428" y="0"/>
      <point x="472" y="0" type="curve"/>
      <point x="472" y="22"/>
      <point x="472" y="0"/>
      <point x="472" y="22" type="curve"/>
      <point x="340" y="22"/>
      <point x="472" y="22"/>
      <point x="340" y="22" type="curve"/>
    </contour>
    <contour>
      <point x="347" y="448"/>
      <point x="333" y="432"/>
      <point x="347" y="448" type="curve"/>
      <point x="314" y="499"/>
      <point x="268" y="533"/>
      <point x="204" y="533" type="curve"/>
      <point x="75" y="533"/>
      <point x="30" y="410"/>
      <point x="30" y="264" type="curve"/>
      <point x="30" y="120"/>
      <point x="79" y="0"/>
      <point x="207" y="0" type="curve"/>
      <point x="279" y="0"/>
      <point x="320" y="50"/>
      <point x="347" y="119" type="curve"/>
      <point x="333" y="134"/>
      <point x="347" y="119"/>
      <point x="333" y="134" type="curve"/>
      <point x="306" y="70"/>
      <point x="272" y="22"/>
      <point x="206" y="22" type="curve"/>
      <point x="90" y="22"/>
      <point x="54" y="134"/>
      <point x="54" y="265" type="curve"/>
      <point x="54" y="397"/>
      <point x="89" y="511"/>
      <point x="205" y="511" type="curve"/>
      <point x="263" y="511"/>
      <point x="304" y="479"/>
      <point x="333" y="432" type="curve"/>
    </contour>
    <contour>
      <point x="353" y="0"/>
      <point x="327" y="0"/>
      <point x="353" y="0" type="curve"/>
      <point x="353" y="267"/>
      <point x="353" y="533"/>
      <point x="353" y="800" type="curve"/>
      <point x="327" y="800"/>
      <point x="353" y="800"/>
      <point x="327" y="800" type="curve"/>
      <point x="327" y="533"/>
      <point x="327" y="267"/>
      <point x="327" y="0" type="curve"/>
    </contour>
  </outline>
</glyph>
<glyph name="g" format="1">
  <advance width="412"/>
  <unicode hex="0067"/>
  <outline>
    <contour>
      <point x="298" y="470"/>
      <point x="285" y="491"/>
      <point x="298" y="470" type="curve"/>
      <point x="326" y="491"/>
      <point x="354" y="512"/>
      <point x="382" y="533" type="curve"/>
      <point x="370" y="554"/>
      <point x="382" y="533"/>
      <point x="370" y="554" type="curve"/>
      <point x="341" y="533"/>
      <point x="313" y="512"/>
      <point x="285" y="491" type="curve"/>
    </contour>
    <contour>
      <point x="85" y="371"/>
      <point x="61" y="370"/>
      <point x="85" y="371" type="curve"/>
      <point x="85" y="456"/>
      <point x="120" y="526"/>
      <point x="196" y="526" type="curve"/>
      <point x="272" y="526"/>
      <point x="304" y="458"/>
      <point x="304" y="374" type="curve"/>
      <point x="304" y="290"/>
      <point x="271" y="222"/>
      <point x="195" y="222" type="curve"/>
      <point x="121" y="222"/>
      <point x="85" y="289"/>
      <point x="85" y="371" type="curve"/>
      <point x="61" y="370"/>
      <point x="85" y="371"/>
      <point x="61" y="370" type="curve"/>
      <point x="61" y="276"/>
      <point x="106" y="202"/>
      <point x="193" y="202" type="curve"/>
      <point x="283" y="202"/>
      <point x="328" y="278"/>
      <point x="328" y="375" type="curve"/>
      <point x="328" y="470"/>
      <point x="284" y="547"/>
      <point x="196" y="547" type="curve"/>
      <point x="106" y="547"/>
      <point x="61" y="468"/>
      <point x="61" y="370" type="curve"/>
    </contour>
    <contour>
      <point x="120" y="240"/>
      <point x="131" y="227"/>
      <point x="120" y="240" type="curve"/>
      <point x="81" y="210"/>
      <point x="64" y="172"/>
      <point x="64" y="123" type="curve"/>
      <point x="64" y="51"/>
      <point x="117" y="9"/>
      <point x="190" y="0" type="curve"/>
      <point x="276" y="-10"/>
      <point x="344" y="-50"/>
      <point x="344" y="-131" type="curve"/>
      <point x="343" y="-214"/>
      <point x="280" y="-266"/>
      <point x="194" y="-266" type="curve"/>
      <point x="110" y="-266"/>
      <point x="54" y="-206"/>
      <point x="54" y="-121" type="curve"/>
      <point x="54" y="-58"/>
      <point x="77" y="-7"/>
      <point x="130" y="24" type="curve"/>
      <point x="118" y="37"/>
      <point x="130" y="24"/>
      <point x="118" y="37" type="curve"/>
      <point x="58" y="2"/>
      <point x="30" y="-51"/>
      <point x="30" y="-122" type="curve"/>
      <point x="30" y="-219"/>
      <point x="94" y="-286"/>
      <point x="192" y="-286" type="curve"/>
      <point x="293" y="-286"/>
      <point x="369" y="-227"/>
      <point x="368" y="-130" type="curve"/>
      <point x="368" y="-39"/>
      <point x="293" y="9"/>
      <point x="197" y="20" type="curve"/>
      <point x="133" y="26"/>
      <point x="88" y="60"/>
      <point x="88" y="125" type="curve"/>
      <point x="88" y="167"/>
      <point x="98" y="200"/>
      <point x="131" y="227" type="curve"/>
    </contour>
  </outline>
</glyph>
<glyph name="i" format="1">
  <advance width="317"/>
  <unicode hex="0069"/>
  <outline>
    <contour>
      <point x="162" y="22"/>
      <point x="162" y="0"/>
      <point x="162" y="22" type="curve"/>
      <point x="30" y="22"/>
      <point x="162" y="22"/>
      <point x="30" y="22" type="curve"/>
      <point x="30" y="0"/>
      <point x="30" y="22"/>
      <point x="30" y="0" type="curve"/>
      <point x="74" y="0"/>
      <point x="118" y="0"/>
      <point x="162" y="0" type="curve"/>
    </contour>
    <contour>
      <point x="162" y="0"/>
      <point x="162" y="22"/>
      <point x="162" y="0" type="curve"/>
      <point x="204" y="0"/>
      <point x="246" y="0"/>
      <point x="287" y="0" type="curve"/>
      <point x="287" y="22"/>
      <point x="287" y="0"/>
      <point x="287" y="22" type="curve"/>
      <point x="162" y="22"/>
      <point x="287" y="22"/>
      <point x="162" y="22" type="curve"/>
    </contour>
    <contour>
      <point x="162" y="533"/>
      <point x="162" y="511"/>
      <point x="162" y="533" type="curve"/>
      <point x="118" y="533"/>
      <point x="74" y="533"/>
      <point x="30" y="533" type="curve"/>
      <point x="30" y="511"/>
      <point x="30" y="533"/>
      <point x="30" y="511" type="curve"/>
      <point x="162" y="511"/>
      <point x="30" y="511"/>
      <point x="162" y="511" type="curve"/>
    </contour>
    <contour>
      <point x="176" y="670"/>
      <point x="148" y="670"/>
      <point x="176" y="670" type="curve"/>
      <point x="176" y="679"/>
      <point x="170" y="684"/>
      <point x="161" y="684" type="curve"/>
      <point x="152" y="684"/>
      <point x="148" y="678"/>
      <point x="148" y="670" type="curve"/>
      <point x="176" y="670"/>
      <point x="148" y="670"/>
      <point x="176" y="670" type="curve"/>
      <point x="176" y="661"/>
      <point x="170" y="657"/>
      <point x="161" y="657" type="curve"/>
      <point x="152" y="657"/>
      <point x="148" y="662"/>
      <point x="148" y="670" type="curve"/>
    </contour>
    <contour>
      <point x="175" y="0"/>
      <point x="150" y="0"/>
      <point x="175" y="0" type="curve"/>
      <point x="175" y="178"/>
      <point x="175" y="355"/>
      <point x="175" y="533" type="curve"/>
      <point x="150" y="533"/>
      <point x="175" y="533"/>
      <point x="150" y="533" type="curve"/>
      <point x="150" y="355"/>
      <point x="150" y="178"/>
      <point x="150" y="0" type="curve"/>
    </contour>
  </outline>
</glyph>
<glyph name="l" format="1">
  <advance width="324"/>
  <unicode hex="006C"/>
  <outline>
    <contour>
      <point x="162" y="22"/>
      <point x="162" y="0"/>
      <point x="162" y="22" type="curve"/>
      <point x="30" y="22"/>
      <point x="162" y="22"/>
      <point x="30" y="22" type="curve"/>
      <point x="30" y="0"/>
      <point x="30" y="22"/>
      <point x="30" y="0" type="curve"/>
      <point x="74" y="0"/>
      <point x="118" y="0"/>
      <point x="162" y="0" type="curve"/>
    </contour>
    <contour>
      <point x="164" y="800"/>
      <point x="164" y="778"/>
      <point x="164" y="800" type="curve"/>
      <point x="119" y="800"/>
      <point x="75" y="800"/>
      <point x="31" y="800" type="curve"/>
      <point x="31" y="778"/>
      <point x="31" y="800"/>
      <point x="31" y="778" type="curve"/>
      <point x="164" y="778"/>
      <point x="31" y="778"/>
      <point x="164" y="778" type="curve"/>
    </contour>
    <contour>
      <point x="162" y="0"/>
      <point x="162" y="22"/>
      <point x="162" y="0" type="curve"/>
      <point x="206" y="0"/>
      <point x="250" y="0"/>
      <point x="294" y="0" type="curve"/>
      <point x="294" y="22"/>
      <point x="294" y="0"/>
      <point x="294" y="22" type="curve"/>
      <point x="162" y="22"/>
      <point x="294" y="22"/>
      <point x="162" y="22" type="curve"/>
    </contour>
    <contour>
      <point x="174" y="0"/>
      <point x="149" y="0"/>
      <point x="174" y="0" type="curve"/>
      <point x="174" y="267"/>
      <point x="173" y="533"/>
      <point x="174" y="800" type="curve"/>
      <point x="149" y="800"/>
      <point x="174" y="800"/>
      <point x="149" y="800" type="curve"/>
      <point x="149" y="533"/>
      <point x="149" y="267"/>
      <point x="149" y="0" type="curve"/>
    </contour>
  </outline>
</glyph>
<glyph name="r" format="1">
  <advance width="333"/>
  <unicode hex="0072"/>
  <outline>
    <contour>
      <point x="163" y="0"/>
      <point x="163" y="22"/>
      <point x="163" y="0" type="curve"/>
      <point x="204" y="0"/>
      <point x="246" y="0"/>
      <point x="288" y="0" type="curve"/>
      <point x="288" y="22"/>
      <point x="288" y="0"/>
      <point x="288" y="22" type="curve"/>
      <point x="163" y="22"/>
      <point x="288" y="22"/>
      <point x="163" y="22" type="curve"/>
    </contour>
    <contour>
      <point x="163" y="22"/>
      <point x="163" y="0"/>
      <point x="163" y="22" type="curve"/>
      <point x="31" y="22"/>
      <point x="163" y="22"/>
      <point x="31" y="22" type="curve"/>
      <point x="31" y="0"/>
      <point x="31" y="22"/>
      <point x="31" y="0" type="curve"/>
      <point x="75" y="0"/>
      <point x="119" y="0"/>
      <point x="163" y="0" type="curve"/>
    </contour>
    <contour>
      <point x="162" y="533"/>
      <point x="162" y="511"/>
      <point x="162" y="533" type="curve"/>
      <point x="118" y="533"/>
      <point x="74" y="533"/>
      <point x="30" y="533" type="curve"/>
      <point x="30" y="511"/>
      <point x="30" y="533"/>
      <point x="30" y="511" type="curve"/>
      <point x="162" y="511"/>
      <point x="30" y="511"/>
      <point x="162" y="511" type="curve"/>
    </contour>
    <contour>
      <point x="175" y="0"/>
      <point x="151" y="0"/>
      <point x="175" y="0" type="curve"/>
      <point x="175" y="178"/>
      <point x="175" y="355"/>
      <point x="175" y="533" type="curve"/>
      <point x="151" y="533"/>
      <point x="175" y="533"/>
      <point x="151" y="533" type="curve"/>
      <point x="151" y="355"/>
      <point x="151" y="178"/>
      <point x="151" y="0" type="curve"/>
    </contour>
    <contour>
      <point x="168" y="402"/>
      <point x="161" y="411"/>
      <point x="168" y="402" type="curve"/>
      <point x="194" y="465"/>
      <point x="236" y="511"/>
      <point x="302" y="511" type="curve"/>
      <point x="302" y="538"/>
      <point x="302" y="511"/>
      <point x="302" y="538" type="curve"/>
      <point x="229" y="538"/>
      <point x="186" y="482"/>
      <point x="161" y="411" type="curve"/>
    </contour>
  </outline>
</glyph>
<glyph name="t" format="1">
  <advance width="334"/>
  <unicode hex="0074"/>
  <outline>
    <contour>
      <point x="30" y="476"/>
      <point x="30" y="498"/>
      <point x="30" y="476" type="curve"/>
      <point x="30" y="476"/>
      <point x="304" y="476"/>
      <point x="304" y="476" type="curve"/>
      <point x="304" y="498"/>
      <point x="304" y="476"/>
      <point x="304" y="498" type="curve"/>
      <point x="304" y="498"/>
      <point x="30" y="498"/>
      <point x="30" y="498" type="curve"/>
    </contour>
    <contour>
      <point x="285" y="46"/>
      <point x="295" y="28"/>
      <point x="285" y="46" type="curve"/>
      <point x="264" y="30"/>
      <point x="246" y="22"/>
      <point x="219" y="22" type="curve"/>
      <point x="157" y="22"/>
      <point x="150" y="72"/>
      <point x="150" y="145" type="curve"/>
      <point x="150" y="145"/>
      <point x="150" y="651"/>
      <point x="150" y="651" type="curve"/>
      <point x="126" y="637"/>
      <point x="150" y="651"/>
      <point x="126" y="637" type="curve"/>
      <point x="126" y="637"/>
      <point x="126" y="143"/>
      <point x="126" y="143" type="curve"/>
      <point x="126" y="56"/>
      <point x="143" y="-5"/>
      <point x="217" y="-5" type="curve"/>
      <point x="249" y="-5"/>
      <point x="269" y="9"/>
      <point x="295" y="28" type="curve"/>
    </contour>
  </outline>
</glyph>
<glyph name="v" format="1">
  <advance width="611"/>
  <unicode hex="0076"/>
  <outline>
    <contour>
      <point x="162" y="533"/>
      <point x="162" y="511"/>
      <point x="162" y="533" type="curve"/>
      <point x="118" y="533"/>
      <point x="74" y="533"/>
      <point x="30" y="533" type="curve"/>
      <point x="30" y="511"/>
      <point x="30" y="533"/>
      <point x="30" y="511" type="curve"/>
      <point x="162" y="511"/>
      <point x="30" y="511"/>
      <point x="162" y="511" type="curve"/>
    </contour>
    <contour>
      <point x="162" y="511"/>
      <point x="162" y="533"/>
      <point x="162" y="511" type="curve"/>
      <point x="294" y="511"/>
      <point x="162" y="511"/>
      <point x="294" y="511" type="curve"/>
      <point x="294" y="533"/>
      <point x="294" y="511"/>
      <point x="294" y="533" type="curve"/>
      <point x="250" y="533"/>
      <point x="206" y="533"/>
      <point x="162" y="533" type="curve"/>
    </contour>
    <contour>
      <point x="448" y="533"/>
      <point x="448" y="511"/>
      <point x="448" y="533" type="curve"/>
      <point x="404" y="533"/>
      <point x="360" y="533"/>
      <point x="316" y="533" type="curve"/>
      <point x="316" y="511"/>
      <point x="316" y="533"/>
      <point x="316" y="511" type="curve"/>
      <point x="448" y="511"/>
      <point x="316" y="511"/>
      <point x="448" y="511" type="curve"/>
    </contour>
    <contour>
      <point x="448" y="511"/>
      <point x="448" y="533"/>
      <point x="448" y="511" type="curve"/>
      <point x="581" y="511"/>
      <point x="448" y="511"/>
      <point x="581" y="511" type="curve"/>
      <point x="581" y="533"/>
      <point x="581" y="511"/>
      <point x="581" y="533" type="curve"/>
      <point x="536" y="533"/>
      <point x="492" y="533"/>
      <point x="448" y="533" type="curve"/>
    </contour>
    <contour>
      <point x="142" y="533"/>
      <point x="168" y="533"/>
      <point x="142" y="533" type="curve"/>
      <point x="191" y="355"/>
      <point x="239" y="178"/>
      <point x="288" y="0" type="curve"/>
      <point x="312" y="0"/>
      <point x="288" y="0"/>
      <point x="312" y="0" type="curve"/>
      <point x="264" y="178"/>
      <point x="216" y="355"/>
      <point x="168" y="533" type="curve"/>
    </contour>
    <contour>
      <point x="443" y="533"/>
      <point x="468" y="533"/>
      <point x="443" y="533" type="curve"/>
      <point x="443" y="533"/>
      <point x="291" y="0"/>
      <point x="291" y="0" type="curve"/>
      <point x="316" y="0"/>
      <point x="291" y="0"/>
      <point x="316" y="0" type="curve"/>
      <point x="367" y="178"/>
      <point x="417" y="355"/>
      <point x="468" y="533" type="curve"/>
    </contour>
  </outline>
</glyph>
<glyph name="w" format="1">
  <advance width="838"/>
  <unicode hex="0077"/>
  <outline>
    <contour>
      <point x="424" y="533"/>
      <point x="424" y="511"/>
      <point x="424" y="533" type="curve"/>
      <point x="380" y="533"/>
      <point x="336" y="533"/>
      <point x="292" y="533" type="curve"/>
      <point x="292" y="511"/>
      <point x="292" y="533"/>
      <point x="292" y="511" type="curve"/>
      <point x="424" y="511"/>
      <point x="292" y="511"/>
      <point x="424" y="511" type="curve"/>
    </contour>
    <contour>
      <point x="424" y="511"/>
      <point x="424" y="533"/>
      <point x="424" y="511" type="curve"/>
      <point x="556" y="511"/>
      <point x="424" y="511"/>
      <point x="556" y="511" type="curve"/>
      <point x="556" y="533"/>
      <point x="556" y="511"/>
      <point x="556" y="533" type="curve"/>
      <point x="512" y="533"/>
      <point x="468" y="533"/>
      <point x="424" y="533" type="curve"/>
    </contour>
    <contour>
      <point x="677" y="511"/>
      <point x="677" y="533"/>
      <point x="677" y="511" type="curve"/>
      <point x="809" y="511"/>
      <point x="677" y="511"/>
      <point x="809" y="511" type="curve"/>
      <point x="809" y="533"/>
      <point x="809" y="511"/>
      <point x="809" y="533" type="curve"/>
      <point x="765" y="533"/>
      <point x="721" y="533"/>
      <point x="677" y="533" type="curve"/>
    </contour>
    <contour>
      <point x="677" y="533"/>
      <point x="677" y="511"/>
      <point x="677" y="533" type="curve"/>
      <point x="633" y="533"/>
      <point x="589" y="533"/>
      <point x="544" y="533" type="curve"/>
      <point x="544" y="511"/>
      <point x="544" y="533"/>
      <point x="544" y="511" type="curve"/>
      <point x="677" y="511"/>
      <point x="544" y="511"/>
      <point x="677" y="511" type="curve"/>
    </contour>
    <contour>
      <point x="162" y="533"/>
      <point x="162" y="511"/>
      <point x="162" y="533" type="curve"/>
      <point x="118" y="533"/>
      <point x="74" y="533"/>
      <point x="30" y="533" type="curve"/>
      <point x="30" y="511"/>
      <point x="30" y="533"/>
      <point x="30" y="511" type="curve"/>
      <point x="162" y="511"/>
      <point x="30" y="511"/>
      <point x="162" y="511" type="curve"/>
    </contour>
    <contour>
      <point x="162" y="511"/>
      <point x="162" y="533"/>
      <point x="162" y="511" type="curve"/>
      <point x="294" y="511"/>
      <point x="162" y="511"/>
      <point x="294" y="511" type="curve"/>
      <point x="294" y="533"/>
      <point x="294" y="511"/>
      <point x="294" y="533" type="curve"/>
      <point x="250" y="533"/>
      <point x="206" y="533"/>
      <point x="162" y="533" type="curve"/>
    </contour>
    <contour>
      <point x="292" y="0"/>
      <point x="269" y="0"/>
      <point x="292" y="0" type="curve"/>
      <point x="340" y="178"/>
      <point x="387" y="355"/>
      <point x="435" y="533" type="curve"/>
      <point x="409" y="533"/>
      <point x="435" y="533"/>
      <point x="409" y="533" type="curve"/>
      <point x="362" y="355"/>
      <point x="316" y="178"/>
      <point x="269" y="0" type="curve"/>
    </contour>
    <contour>
      <point x="673" y="533"/>
      <point x="699" y="533"/>
      <point x="673" y="533" type="curve"/>
      <point x="629" y="355"/>
      <point x="586" y="178"/>
      <point x="542" y="0" type="curve"/>
      <point x="565" y="0"/>
      <point x="542" y="0"/>
      <point x="565" y="0" type="curve"/>
      <point x="610" y="178"/>
      <point x="654" y="355"/>
      <point x="699" y="533" type="curve"/>
    </contour>
    <contour>
      <point x="413" y="533"/>
      <point x="438" y="533"/>
      <point x="413" y="533" type="curve"/>
      <point x="456" y="355"/>
      <point x="499" y="178"/>
      <point x="541" y="0" type="curve"/>
      <point x="565" y="0"/>
      <point x="541" y="0"/>
      <point x="565" y="0" type="curve"/>
      <point x="523" y="178"/>
      <point x="480" y="355"/>
      <point x="438" y="533" type="curve"/>
    </contour>
    <contour>
      <point x="141" y="533"/>
      <point x="166" y="533"/>
      <point x="141" y="533" type="curve"/>
      <point x="183" y="355"/>
      <point x="226" y="178"/>
      <point x="268" y="0" type="curve"/>
      <point x="292" y="0"/>
      <point x="268" y="0"/>
      <point x="292" y="0" type="curve"/>
      <point x="250" y="178"/>
      <point x="208" y="355"/>
      <point x="166" y="533" type="curve"/>
    </contour>
  </outline>
</glyph>
<glyph name="y" format="1">
  <advance width="607"/>
  <unicode hex="0079"/>
  <outline>
    <contour>
      <point x="178" y="-279"/>
      <point x="178" y="-300"/>
      <point x="178" y="-279" type="curve"/>
      <point x="46" y="-278"/>
      <point x="178" y="-279"/>
      <point x="46" y="-278" type="curve"/>
      <point x="46" y="-300"/>
      <point x="46" y="-278"/>
      <point x="46" y="-300" type="curve"/>
      <point x="90" y="-300"/>
      <point x="134" y="-300"/>
      <point x="178" y="-300" type="curve"/>
    </contour>
    <contour>
      <point x="162" y="533"/>
      <point x="162" y="511"/>
      <point x="162" y="533" type="curve"/>
      <point x="118" y="533"/>
      <point x="74" y="533"/>
      <point x="30" y="533" type="curve"/>
      <point x="30" y="511"/>
      <point x="30" y="533"/>
      <point x="30" y="511" type="curve"/>
      <point x="162" y="511"/>
      <point x="30" y="511"/>
      <point x="162" y="511" type="curve"/>
    </contour>
    <contour>
      <point x="162" y="511"/>
      <point x="162" y="533"/>
      <point x="162" y="511" type="curve"/>
      <point x="294" y="511"/>
      <point x="162" y="511"/>
      <point x="294" y="511" type="curve"/>
      <point x="294" y="533"/>
      <point x="294" y="511"/>
      <point x="294" y="533" type="curve"/>
      <point x="250" y="533"/>
      <point x="206" y="533"/>
      <point x="162" y="533" type="curve"/>
    </contour>
    <contour>
      <point x="446" y="533"/>
      <point x="446" y="511"/>
      <point x="446" y="533" type="curve"/>
      <point x="402" y="533"/>
      <point x="358" y="533"/>
      <point x="313" y="533" type="curve"/>
      <point x="313" y="511"/>
      <point x="313" y="533"/>
      <point x="313" y="511" type="curve"/>
      <point x="446" y="511"/>
      <point x="313" y="511"/>
      <point x="446" y="511" type="curve"/>
    </contour>
    <contour>
      <point x="446" y="511"/>
      <point x="446" y="533"/>
      <point x="446" y="511" type="curve"/>
      <point x="578" y="511"/>
      <point x="446" y="511"/>
      <point x="578" y="511" type="curve"/>
      <point x="578" y="533"/>
      <point x="578" y="511"/>
      <point x="578" y="533" type="curve"/>
      <point x="534" y="533"/>
      <point x="490" y="533"/>
      <point x="446" y="533" type="curve"/>
    </contour>
    <contour>
      <point x="310" y="77"/>
      <point x="287" y="77"/>
      <point x="310" y="77" type="curve"/>
      <point x="262" y="229"/>
      <point x="215" y="381"/>
      <point x="167" y="533" type="curve"/>
      <point x="140" y="533"/>
      <point x="167" y="533"/>
      <point x="140" y="533" type="curve"/>
      <point x="189" y="381"/>
      <point x="238" y="229"/>
      <point x="287" y="77" type="curve"/>
    </contour>
    <contour>
      <point x="183" y="-300"/>
      <point x="156" y="-300"/>
      <point x="183" y="-300" type="curve"/>
      <point x="278" y="-22"/>
      <point x="373" y="255"/>
      <point x="467" y="533" type="curve"/>
      <point x="441" y="533"/>
      <point x="467" y="533"/>
      <point x="441" y="533" type="curve"/>
      <point x="346" y="255"/>
      <point x="251" y="-22"/>
      <point x="156" y="-300" type="curve"/>
    </contour>
  </outline>
</glyph>
<glyph name="braceleft" format="1">
  <advance width="222"/>
  <unicode hex="007B"/>
  <outline>
    <contour>
      <point x="192" y="-103"/>
      <point x="192" y="-125"/>
      <point x="192" y="-103" type="curve"/>
      <point x="131" y="-103"/>
      <point x="122" y="-44"/>
      <point x="122" y="25" type="curve"/>
      <point x="122" y="84"/>
      <point x="122" y="144"/>
      <point x="122" y="203" type="curve"/>
      <point x="122" y="283"/>
      <point x="101" y="350"/>
      <point x="30" y="350" type="curve"/>
      <point x="30" y="327"/>
      <point x="30" y="350"/>
      <point x="30" y="327" type="curve"/>
      <point x="87" y="327"/>
      <point x="100" y="271"/>
      <point x="100" y="205" type="curve"/>
      <point x="100" y="145"/>
      <point x="100" y="86"/>
      <point x="100" y="26" type="curve"/>
      <point x="100" y="-57"/>
      <point x="119" y="-125"/>
      <point x="192" y="-125" type="curve"/>
    </contour>
    <contour>
      <point x="192" y="801"/>
      <point x="192" y="779"/>
      <point x="192" y="801" type="curve"/>
      <point x="119" y="801"/>
      <point x="100" y="734"/>
      <point x="100" y="651" type="curve"/>
      <point x="100" y="591"/>
      <point x="100" y="530"/>
      <point x="100" y="470" type="curve"/>
      <point x="100" y="404"/>
      <point x="87" y="350"/>
      <point x="30" y="350" type="curve"/>
      <point x="30" y="327"/>
      <point x="30" y="350"/>
      <point x="30" y="327" type="curve"/>
      <point x="100" y="327"/>
      <point x="122" y="392"/>
      <point x="122" y="473" type="curve"/>
      <point x="122" y="532"/>
      <point x="122" y="592"/>
      <point x="122" y="651" type="curve"/>
      <point x="122" y="720"/>
      <point x="131" y="779"/>
      <point x="192" y="779" type="curve"/>
    </contour>
  </outline>
</glyph>
<glyph name="ideva" format="1">
  <advance width="469"/>
  <unicode hex="0907"/>
  <outline>
    <contour>
      <point x="30" y="700"/>
      <point x="30" y="722"/>
      <point x="30" y="700" type="curve"/>
      <point x="166" y="700"/>
      <point x="303" y="700"/>
      <point x="439" y="700" type="curve"/>
      <point x="439" y="722"/>
      <point x="439" y="700"/>
      <point x="439" y="722" type="curve"/>
      <point x="303" y="722"/>
      <point x="166" y="722"/>
      <point x="30" y="722" type="curve"/>
    </contour>
    <contour>
      <point x="313" y="710"/>
      <point x="337" y="710"/>
      <point x="313" y="710" type="curve"/>
      <point x="313" y="648"/>
      <point x="313" y="586"/>
      <point x="313" y="525" type="curve"/>
      <point x="315" y="528"/>
      <point x="319" y="531"/>
      <point x="322" y="534" type="curve"/>
      <point x="324" y="538"/>
      <point x="328" y="540"/>
      <point x="331" y="543" type="curve"/>
      <point x="283" y="543"/>
      <point x="234" y="543"/>
      <point x="186" y="543" type="curve"/>
      <point x="108" y="543"/>
      <point x="65" y="496"/>
      <point x="65" y="417" type="curve"/>
      <point x="65" y="351"/>
      <point x="92" y="311"/>
      <point x="141" y="266" type="curve"/>
      <point x="147" y="290"/>
      <point x="141" y="266"/>
      <point x="147" y="290" type="curve"/>
      <point x="111" y="329"/>
      <point x="88" y="363"/>
      <point x="88" y="417" type="curve"/>
      <point x="88" y="482"/>
      <point x="123" y="522"/>
      <point x="186" y="522" type="curve"/>
      <point x="234" y="522"/>
      <point x="283" y="522"/>
      <point x="331" y="522" type="curve"/>
      <point x="337" y="522"/>
      <point x="331" y="522"/>
      <point x="337" y="522" type="curve"/>
      <point x="337" y="525"/>
      <point x="337" y="522"/>
      <point x="337" y="525" type="curve"/>
      <point x="337" y="586"/>
      <point x="337" y="648"/>
      <point x="337" y="710" type="curve"/>
    </contour>
    <contour>
      <point x="141" y="266"/>
      <point x="147" y="290"/>
      <point x="141" y="266" type="curve"/>
      <point x="185" y="296"/>
      <point x="216" y="309"/>
      <point x="270" y="309" type="curve"/>
      <point x="330" y="309"/>
      <point x="357" y="264"/>
      <point x="356" y="197" type="curve"/>
      <point x="356" y="107"/>
      <point x="308" y="52"/>
      <point x="220" y="52" type="curve"/>
      <point x="158" y="52"/>
      <point x="125" y="88"/>
      <point x="113" y="150" type="curve"/>
      <point x="94" y="135"/>
      <point x="113" y="150"/>
      <point x="94" y="135" type="curve"/>
      <point x="104" y="64"/>
      <point x="147" y="29"/>
      <point x="220" y="29" type="curve"/>
      <point x="322" y="29"/>
      <point x="378" y="93"/>
      <point x="378" y="197" type="curve"/>
      <point x="378" y="276"/>
      <point x="346" y="331"/>
      <point x="272" y="331" type="curve"/>
      <point x="221" y="332"/>
      <point x="190" y="318"/>
      <point x="147" y="290" type="curve"/>
    </contour>
    <contour>
      <point x="94" y="135"/>
      <point x="113" y="150"/>
      <point x="94" y="135" type="curve"/>
      <point x="147" y="43"/>
      <point x="201" y="-49"/>
      <point x="255" y="-140" type="curve"/>
      <point x="277" y="-124"/>
      <point x="255" y="-140"/>
      <point x="277" y="-124" type="curve"/>
      <point x="222" y="-33"/>
      <point x="168" y="59"/>
      <point x="113" y="150" type="curve"/>
    </contour>
  </outline>
</glyph>
<glyph name="uni0922094D0922094D092F" format="1">
  <advance width="949"/>
  <unicode hex="E003"/>
  <outline>
    <contour>
      <point x="337" y="710"/>
      <point x="361" y="710"/>
      <point x="337" y="710" type="curve"/>
      <point x="337" y="646"/>
      <point x="337" y="581"/>
      <point x="337" y="517" type="curve"/>
      <point x="340" y="520"/>
      <point x="343" y="522"/>
      <point x="345" y="525" type="curve"/>
      <point x="348" y="528"/>
      <point x="351" y="530"/>
      <point x="353" y="533" type="curve"/>
      <point x="326" y="533"/>
      <point x="298" y="533"/>
      <point x="271" y="533" type="curve"/>
      <point x="166" y="533"/>
      <point x="100" y="474"/>
      <point x="100" y="371" type="curve"/>
      <point x="101" y="252"/>
      <point x="170" y="191"/>
      <point x="293" y="191" type="curve"/>
      <point x="368" y="191"/>
      <point x="419" y="223"/>
      <point x="419" y="293" type="curve"/>
      <point x="419" y="350"/>
      <point x="394" y="387"/>
      <point x="342" y="387" type="curve"/>
      <point x="289" y="387"/>
      <point x="263" y="350"/>
      <point x="263" y="292" type="curve"/>
      <point x="263" y="238"/>
      <point x="289" y="207"/>
      <point x="342" y="197" type="curve"/>
      <point x="344" y="209"/>
      <point x="342" y="197"/>
      <point x="344" y="209" type="curve"/>
      <point x="302" y="223"/>
      <point x="287" y="248"/>
      <point x="287" y="293" type="curve"/>
      <point x="287" y="336"/>
      <point x="303" y="368"/>
      <point x="342" y="368" type="curve"/>
      <point x="381" y="368"/>
      <point x="395" y="335"/>
      <point x="395" y="292" type="curve"/>
      <point x="395" y="237"/>
      <point x="354" y="209"/>
      <point x="295" y="209" type="curve"/>
      <point x="186" y="209"/>
      <point x="125" y="265"/>
      <point x="125" y="371" type="curve"/>
      <point x="125" y="459"/>
      <point x="181" y="511"/>
      <point x="271" y="511" type="curve"/>
      <point x="298" y="511"/>
      <point x="326" y="511"/>
      <point x="353" y="511" type="curve"/>
      <point x="361" y="511"/>
      <point x="353" y="511"/>
      <point x="361" y="511" type="curve"/>
      <point x="361" y="517"/>
      <point x="361" y="511"/>
      <point x="361" y="517" type="curve"/>
      <point x="361" y="581"/>
      <point x="361" y="646"/>
      <point x="361" y="710" type="curve"/>
    </contour>
    <contour>
      <point x="329" y="203"/>
      <point x="354" y="203"/>
      <point x="329" y="203" type="curve"/>
      <point x="329" y="144"/>
      <point x="329" y="85"/>
      <point x="329" y="26" type="curve"/>
      <point x="332" y="29"/>
      <point x="335" y="31"/>
      <point x="338" y="34" type="curve"/>
      <point x="340" y="38"/>
      <point x="344" y="40"/>
      <point x="346" y="44" type="curve"/>
      <point x="319" y="44"/>
      <point x="291" y="44"/>
      <point x="264" y="44" type="curve"/>
      <point x="156" y="44"/>
      <point x="100" y="-21"/>
      <point x="100" y="-130" type="curve"/>
      <point x="101" y="-253"/>
      <point x="168" y="-320"/>
      <point x="293" y="-320" type="curve"/>
      <point x="368" y="-320"/>
      <point x="419" y="-286"/>
      <point x="419" y="-215" type="curve"/>
      <point x="419" y="-158"/>
      <point x="396" y="-119"/>
      <point x="344" y="-119" type="curve"/>
      <point x="290" y="-119"/>
      <point x="268" y="-158"/>
      <point x="268" y="-216" type="curve"/>
      <point x="268" y="-269"/>
      <point x="298" y="-304"/>
      <point x="342" y="-312" type="curve"/>
      <point x="345" y="-302"/>
      <point x="342" y="-312"/>
      <point x="345" y="-302" type="curve"/>
      <point x="307" y="-288"/>
      <point x="291" y="-259"/>
      <point x="291" y="-215" type="curve"/>
      <point x="291" y="-171"/>
      <point x="304" y="-138"/>
      <point x="343" y="-138" type="curve"/>
      <point x="382" y="-138"/>
      <point x="394" y="-171"/>
      <point x="394" y="-216" type="curve"/>
      <point x="394" y="-272"/>
      <point x="354" y="-303"/>
      <point x="295" y="-303" type="curve"/>
      <point x="184" y="-303"/>
      <point x="125" y="-240"/>
      <point x="125" y="-130" type="curve"/>
      <point x="125" y="-35"/>
      <point x="170" y="21"/>
      <point x="264" y="21" type="curve"/>
      <point x="291" y="21"/>
      <point x="319" y="21"/>
      <point x="346" y="21" type="curve"/>
      <point x="354" y="21"/>
      <point x="346" y="21"/>
      <point x="354" y="21" type="curve"/>
      <point x="354" y="26"/>
      <point x="354" y="21"/>
      <point x="354" y="26" type="curve"/>
      <point x="354" y="85"/>
      <point x="354" y="144"/>
      <point x="354" y="203" type="curve"/>
    </contour>
    <contour>
      <point x="801" y="0"/>
      <point x="801" y="22"/>
      <point x="801" y="0" type="curve"/>
      <point x="841" y="0"/>
      <point x="880" y="0"/>
      <point x="919" y="0" type="curve"/>
      <point x="919" y="22"/>
      <point x="919" y="0"/>
      <point x="919" y="22" type="curve"/>
      <point x="801" y="22"/>
      <point x="919" y="22"/>
      <point x="801" y="22" type="curve"/>
    </contour>
    <contour>
      <point x="30" y="700"/>
      <point x="30" y="722"/>
      <point x="30" y="700" type="curve"/>
      <point x="326" y="700"/>
      <point x="623" y="700"/>
      <point x="919" y="700" type="curve"/>
      <point x="919" y="722"/>
      <point x="919" y="700"/>
      <point x="919" y="722" type="curve"/>
      <point x="623" y="722"/>
      <point x="326" y="722"/>
      <point x="30" y="722" type="curve"/>
    </contour>
    <contour>
      <point x="814" y="0"/>
      <point x="789" y="0"/>
      <point x="814" y="0" type="curve"/>
      <point x="814" y="237"/>
      <point x="814" y="473"/>
      <point x="814" y="710" type="curve"/>
      <point x="789" y="710"/>
      <point x="814" y="710"/>
      <point x="789" y="710" type="curve"/>
      <point x="789" y="473"/>
      <point x="789" y="237"/>
      <point x="789" y="0" type="curve"/>
    </contour>
    <contour>
      <point x="323" y="511"/>
      <point x="323" y="533"/>
      <point x="323" y="511" type="curve"/>
      <point x="395" y="511"/>
      <point x="445" y="511"/>
      <point x="518" y="511" type="curve"/>
      <point x="590" y="511"/>
      <point x="644" y="487"/>
      <point x="644" y="422" type="curve"/>
      <point x="644" y="357"/>
      <point x="593" y="330"/>
      <point x="521" y="330" type="curve"/>
      <point x="514" y="330"/>
      <point x="521" y="330"/>
      <point x="514" y="330" type="curve"/>
      <point x="514" y="326"/>
      <point x="514" y="330"/>
      <point x="514" y="326" type="curve"/>
      <point x="515" y="193"/>
      <point x="554" y="91"/>
      <point x="673" y="91" type="curve"/>
      <point x="751" y="91"/>
      <point x="786" y="144"/>
      <point x="811" y="223" type="curve"/>
      <point x="793" y="233"/>
      <point x="811" y="223"/>
      <point x="793" y="233" type="curve"/>
      <point x="769" y="163"/>
      <point x="743" y="114"/>
      <point x="673" y="114" type="curve"/>
      <point x="568" y="114"/>
      <point x="538" y="209"/>
      <point x="538" y="327" type="curve"/>
      <point x="536" y="324"/>
      <point x="533" y="321"/>
      <point x="530" y="318" type="curve"/>
      <point x="528" y="314"/>
      <point x="524" y="311"/>
      <point x="521" y="307" type="curve"/>
      <point x="608" y="307"/>
      <point x="668" y="343"/>
      <point x="668" y="423" type="curve"/>
      <point x="668" y="502"/>
      <point x="605" y="533"/>
      <point x="518" y="533" type="curve"/>
      <point x="445" y="533"/>
      <point x="395" y="533"/>
      <point x="323" y="533" type="curve"/>
    </contour>
  </outline>
</glyph>
